<?xml version="1.0" encoding="UTF-8" standalone="no"?>
<!DOCTYPE svg PUBLIC "-//W3C//DTD SVG 1.1//EN"
 "http://www.w3.org/Graphics/SVG/1.1/DTD/svg11.dtd">
<!-- Generated by graphviz version 2.38.0 (20140413.2041)
 -->
<!-- Title: controllers_diagram Pages: 1 -->
<svg width="796pt" height="715pt"
 viewBox="0.00 0.00 796.00 715.00" xmlns="http://www.w3.org/2000/svg" xmlns:xlink="http://www.w3.org/1999/xlink">
<g id="graph0" class="graph" transform="scale(1 1) rotate(0) translate(292.5 387.5)">
<title>controllers_diagram</title>
<polygon fill="none" stroke="none" points="-292.5,327.5 -292.5,-387.5 503.5,-387.5 503.5,327.5 -292.5,327.5"/>
<!-- _diagram_info -->
<g id="node1" class="node"><title>_diagram_info</title>
<text text-anchor="start" x="260" y="26.4" font-family="Times,serif" font-size="13.00">Controllers diagram</text>
<text text-anchor="start" x="260" y="40.4" font-family="Times,serif" font-size="13.00">Date: Mar 20 2017 &#45; 02:12</text>
<text text-anchor="start" x="260" y="54.4" font-family="Times,serif" font-size="13.00">Migration version: 20170320051021</text>
<text text-anchor="start" x="260" y="68.4" font-family="Times,serif" font-size="13.00">Generated by RailRoady 1.5.2</text>
<text text-anchor="start" x="260" y="82.4" font-family="Times,serif" font-size="13.00">http://railroady.prestonlee.com</text>
</g>
<!-- UbicationsController -->
<g id="node2" class="node"><title>UbicationsController</title>
<path fill="none" stroke="black" d="M102.5,89.5C102.5,89.5 209.5,89.5 209.5,89.5 215.5,89.5 221.5,83.5 221.5,77.5 221.5,77.5 221.5,-111.5 221.5,-111.5 221.5,-117.5 215.5,-123.5 209.5,-123.5 209.5,-123.5 102.5,-123.5 102.5,-123.5 96.5,-123.5 90.5,-117.5 90.5,-111.5 90.5,-111.5 90.5,77.5 90.5,77.5 90.5,83.5 96.5,89.5 102.5,89.5"/>
<text text-anchor="middle" x="156" y="-108.3" font-family="Times,serif" font-size="14.00">UbicationsController</text>
<polyline fill="none" stroke="black" points="90.5,-100.5 221.5,-100.5 "/>
<text text-anchor="start" x="98.5" y="-85.3" font-family="Times,serif" font-size="14.00">create</text>
<text text-anchor="start" x="98.5" y="-70.3" font-family="Times,serif" font-size="14.00">destroy</text>
<text text-anchor="start" x="98.5" y="-55.3" font-family="Times,serif" font-size="14.00">edit</text>
<text text-anchor="start" x="98.5" y="-40.3" font-family="Times,serif" font-size="14.00">index</text>
<text text-anchor="start" x="98.5" y="-25.3" font-family="Times,serif" font-size="14.00">new</text>
<text text-anchor="start" x="98.5" y="-10.3" font-family="Times,serif" font-size="14.00">show</text>
<text text-anchor="start" x="98.5" y="4.7" font-family="Times,serif" font-size="14.00">update</text>
<polyline fill="none" stroke="black" points="90.5,12.5 221.5,12.5 "/>
<polyline fill="none" stroke="black" points="90.5,36.5 221.5,36.5 "/>
<text text-anchor="start" x="98.5" y="51.7" font-family="Times,serif" font-size="14.00">_layout</text>
<text text-anchor="start" x="98.5" y="66.7" font-family="Times,serif" font-size="14.00">set_ubication</text>
<text text-anchor="start" x="98.5" y="81.7" font-family="Times,serif" font-size="14.00">ubication_params</text>
</g>
<!-- ReservationsController -->
<g id="node3" class="node"><title>ReservationsController</title>
<path fill="none" stroke="black" d="M-78,-144.5C-78,-144.5 40,-144.5 40,-144.5 46,-144.5 52,-150.5 52,-156.5 52,-156.5 52,-345.5 52,-345.5 52,-351.5 46,-357.5 40,-357.5 40,-357.5 -78,-357.5 -78,-357.5 -84,-357.5 -90,-351.5 -90,-345.5 -90,-345.5 -90,-156.5 -90,-156.5 -90,-150.5 -84,-144.5 -78,-144.5"/>
<text text-anchor="middle" x="-19" y="-342.3" font-family="Times,serif" font-size="14.00">ReservationsController</text>
<polyline fill="none" stroke="black" points="-90,-334.5 52,-334.5 "/>
<text text-anchor="start" x="-82" y="-319.3" font-family="Times,serif" font-size="14.00">create</text>
<text text-anchor="start" x="-82" y="-304.3" font-family="Times,serif" font-size="14.00">destroy</text>
<text text-anchor="start" x="-82" y="-289.3" font-family="Times,serif" font-size="14.00">edit</text>
<text text-anchor="start" x="-82" y="-274.3" font-family="Times,serif" font-size="14.00">index</text>
<text text-anchor="start" x="-82" y="-259.3" font-family="Times,serif" font-size="14.00">new</text>
<text text-anchor="start" x="-82" y="-244.3" font-family="Times,serif" font-size="14.00">show</text>
<text text-anchor="start" x="-82" y="-229.3" font-family="Times,serif" font-size="14.00">update</text>
<polyline fill="none" stroke="black" points="-90,-221.5 52,-221.5 "/>
<polyline fill="none" stroke="black" points="-90,-197.5 52,-197.5 "/>
<text text-anchor="start" x="-82" y="-182.3" font-family="Times,serif" font-size="14.00">_layout</text>
<text text-anchor="start" x="-82" y="-167.3" font-family="Times,serif" font-size="14.00">reservation_params</text>
<text text-anchor="start" x="-82" y="-152.3" font-family="Times,serif" font-size="14.00">set_reservation</text>
</g>
<!-- Users::RegistrationsController -->
<g id="node4" class="node"><title>Users::RegistrationsController</title>
<path fill="none" stroke="black" d="M102,233C102,233 284,233 284,233 290,233 296,227 296,221 296,221 296,137 296,137 296,131 290,125 284,125 284,125 102,125 102,125 96,125 90,131 90,137 90,137 90,221 90,221 90,227 96,233 102,233"/>
<text text-anchor="middle" x="193" y="140.2" font-family="Times,serif" font-size="14.00">Users::RegistrationsController</text>
<polyline fill="none" stroke="black" points="90,148 296,148 "/>
<text text-anchor="start" x="98" y="163.2" font-family="Times,serif" font-size="14.00">configure_account_update_params</text>
<text text-anchor="start" x="98" y="178.2" font-family="Times,serif" font-size="14.00">configure_sign_up_params</text>
<polyline fill="none" stroke="black" points="90,186 296,186 "/>
<polyline fill="none" stroke="black" points="90,210 296,210 "/>
<text text-anchor="start" x="98" y="225.2" font-family="Times,serif" font-size="14.00">_layout</text>
</g>
<!-- Users::PasswordsController -->
<g id="node5" class="node"><title>Users::PasswordsController</title>
<path fill="none" stroke="black" d="M-276.5,-289C-276.5,-289 -133.5,-289 -133.5,-289 -127.5,-289 -121.5,-295 -121.5,-301 -121.5,-301 -121.5,-371 -121.5,-371 -121.5,-377 -127.5,-383 -133.5,-383 -133.5,-383 -276.5,-383 -276.5,-383 -282.5,-383 -288.5,-377 -288.5,-371 -288.5,-371 -288.5,-301 -288.5,-301 -288.5,-295 -282.5,-289 -276.5,-289"/>
<text text-anchor="middle" x="-205" y="-367.8" font-family="Times,serif" font-size="14.00">Users::PasswordsController</text>
<polyline fill="none" stroke="black" points="-288.5,-360 -121.5,-360 "/>
<polyline fill="none" stroke="black" points="-288.5,-336 -121.5,-336 "/>
<polyline fill="none" stroke="black" points="-288.5,-312 -121.5,-312 "/>
<text text-anchor="start" x="-280.5" y="-296.8" font-family="Times,serif" font-size="14.00">_layout</text>
</g>
<!-- Users::UnlocksController -->
<g id="node6" class="node"><title>Users::UnlocksController</title>
<path fill="none" stroke="black" d="M336.5,323C336.5,323 467.5,323 467.5,323 473.5,323 479.5,317 479.5,311 479.5,311 479.5,241 479.5,241 479.5,235 473.5,229 467.5,229 467.5,229 336.5,229 336.5,229 330.5,229 324.5,235 324.5,241 324.5,241 324.5,311 324.5,311 324.5,317 330.5,323 336.5,323"/>
<text text-anchor="middle" x="402" y="244.2" font-family="Times,serif" font-size="14.00">Users::UnlocksController</text>
<polyline fill="none" stroke="black" points="324.5,252 479.5,252 "/>
<polyline fill="none" stroke="black" points="324.5,276 479.5,276 "/>
<polyline fill="none" stroke="black" points="324.5,300 479.5,300 "/>
<text text-anchor="start" x="332.5" y="315.2" font-family="Times,serif" font-size="14.00">_layout</text>
</g>
<!-- Users::ConfirmationsController -->
<g id="node7" class="node"><title>Users::ConfirmationsController</title>
<path fill="none" stroke="black" d="M264.5,-19C264.5,-19 429.5,-19 429.5,-19 435.5,-19 441.5,-25 441.5,-31 441.5,-31 441.5,-101 441.5,-101 441.5,-107 435.5,-113 429.5,-113 429.5,-113 264.5,-113 264.5,-113 258.5,-113 252.5,-107 252.5,-101 252.5,-101 252.5,-31 252.5,-31 252.5,-25 258.5,-19 264.5,-19"/>
<text text-anchor="middle" x="347" y="-97.8" font-family="Times,serif" font-size="14.00">Users::ConfirmationsController</text>
<polyline fill="none" stroke="black" points="252.5,-90 441.5,-90 "/>
<polyline fill="none" stroke="black" points="252.5,-66 441.5,-66 "/>
<polyline fill="none" stroke="black" points="252.5,-42 441.5,-42 "/>
<text text-anchor="start" x="260.5" y="-26.8" font-family="Times,serif" font-size="14.00">_layout</text>
</g>
<!-- Users::OmniauthCallbacksController -->
<g id="node8" class="node"><title>Users::OmniauthCallbacksController</title>
<path fill="none" stroke="black" d="M-222,233C-222,233 -28,233 -28,233 -22,233 -16,227 -16,221 -16,221 -16,151 -16,151 -16,145 -22,139 -28,139 -28,139 -222,139 -222,139 -228,139 -234,145 -234,151 -234,151 -234,221 -234,221 -234,227 -228,233 -222,233"/>
<text text-anchor="middle" x="-125" y="154.2" font-family="Times,serif" font-size="14.00">Users::OmniauthCallbacksController</text>
<polyline fill="none" stroke="black" points="-234,162 -16,162 "/>
<polyline fill="none" stroke="black" points="-234,186 -16,186 "/>
<polyline fill="none" stroke="black" points="-234,210 -16,210 "/>
<text text-anchor="start" x="-226" y="225.2" font-family="Times,serif" font-size="14.00">_layout</text>
</g>
<!-- Users::SessionsController -->
<g id="node9" class="node"><title>Users::SessionsController</title>
<path fill="none" stroke="black" d="M354.5,-145C354.5,-145 487.5,-145 487.5,-145 493.5,-145 499.5,-151 499.5,-157 499.5,-157 499.5,-227 499.5,-227 499.5,-233 493.5,-239 487.5,-239 487.5,-239 354.5,-239 354.5,-239 348.5,-239 342.5,-233 342.5,-227 342.5,-227 342.5,-157 342.5,-157 342.5,-151 348.5,-145 354.5,-145"/>
<text text-anchor="middle" x="421" y="-223.8" font-family="Times,serif" font-size="14.00">Users::SessionsController</text>
<polyline fill="none" stroke="black" points="342.5,-216 499.5,-216 "/>
<polyline fill="none" stroke="black" points="342.5,-192 499.5,-192 "/>
<polyline fill="none" stroke="black" points="342.5,-168 499.5,-168 "/>
<text text-anchor="start" x="350.5" y="-152.8" font-family="Times,serif" font-size="14.00">_layout</text>
</g>
<!-- ActivitiesController -->
<g id="node10" class="node"><title>ActivitiesController</title>
<path fill="none" stroke="black" d="M-240.5,-0.5C-240.5,-0.5 -139.5,-0.5 -139.5,-0.5 -133.5,-0.5 -127.5,-6.5 -127.5,-12.5 -127.5,-12.5 -127.5,-201.5 -127.5,-201.5 -127.5,-207.5 -133.5,-213.5 -139.5,-213.5 -139.5,-213.5 -240.5,-213.5 -240.5,-213.5 -246.5,-213.5 -252.5,-207.5 -252.5,-201.5 -252.5,-201.5 -252.5,-12.5 -252.5,-12.5 -252.5,-6.5 -246.5,-0.5 -240.5,-0.5"/>
<text text-anchor="middle" x="-190" y="-198.3" font-family="Times,serif" font-size="14.00">ActivitiesController</text>
<polyline fill="none" stroke="black" points="-252.5,-190.5 -127.5,-190.5 "/>
<text text-anchor="start" x="-244.5" y="-175.3" font-family="Times,serif" font-size="14.00">create</text>
<text text-anchor="start" x="-244.5" y="-160.3" font-family="Times,serif" font-size="14.00">destroy</text>
<text text-anchor="start" x="-244.5" y="-145.3" font-family="Times,serif" font-size="14.00">edit</text>
<text text-anchor="start" x="-244.5" y="-130.3" font-family="Times,serif" font-size="14.00">index</text>
<text text-anchor="start" x="-244.5" y="-115.3" font-family="Times,serif" font-size="14.00">new</text>
<text text-anchor="start" x="-244.5" y="-100.3" font-family="Times,serif" font-size="14.00">show</text>
<text text-anchor="start" x="-244.5" y="-85.3" font-family="Times,serif" font-size="14.00">update</text>
<polyline fill="none" stroke="black" points="-252.5,-77.5 -127.5,-77.5 "/>
<polyline fill="none" stroke="black" points="-252.5,-53.5 -127.5,-53.5 "/>
<text text-anchor="start" x="-244.5" y="-38.3" font-family="Times,serif" font-size="14.00">_layout</text>
<text text-anchor="start" x="-244.5" y="-23.3" font-family="Times,serif" font-size="14.00">activity_params</text>
<text text-anchor="start" x="-244.5" y="-8.3" font-family="Times,serif" font-size="14.00">set_activity</text>
</g>
<!-- ApplicationController -->
<g id="node11" class="node"><title>ApplicationController</title>
<path fill="none" stroke="black" d="M354,-271C354,-271 466,-271 466,-271 472,-271 478,-277 478,-283 478,-283 478,-353 478,-353 478,-359 472,-365 466,-365 466,-365 354,-365 354,-365 348,-365 342,-359 342,-353 342,-353 342,-283 342,-283 342,-277 348,-271 354,-271"/>
<text text-anchor="middle" x="410" y="-349.8" font-family="Times,serif" font-size="14.00">ApplicationController</text>
<polyline fill="none" stroke="black" points="342,-342 478,-342 "/>
<polyline fill="none" stroke="black" points="342,-318 478,-318 "/>
<polyline fill="none" stroke="black" points="342,-294 478,-294 "/>
<text text-anchor="start" x="350" y="-278.8" font-family="Times,serif" font-size="14.00">_layout</text>
</g>
<!-- SubsidiariesController -->
<g id="node12" class="node"><title>SubsidiariesController</title>
<path fill="none" stroke="black" d="M174,-162.5C174,-162.5 288,-162.5 288,-162.5 294,-162.5 300,-168.5 300,-174.5 300,-174.5 300,-363.5 300,-363.5 300,-369.5 294,-375.5 288,-375.5 288,-375.5 174,-375.5 174,-375.5 168,-375.5 162,-369.5 162,-363.5 162,-363.5 162,-174.5 162,-174.5 162,-168.5 168,-162.5 174,-162.5"/>
<text text-anchor="middle" x="231" y="-360.3" font-family="Times,serif" font-size="14.00">SubsidiariesController</text>
<polyline fill="none" stroke="black" points="162,-352.5 300,-352.5 "/>
<text text-anchor="start" x="170" y="-337.3" font-family="Times,serif" font-size="14.00">create</text>
<text text-anchor="start" x="170" y="-322.3" font-family="Times,serif" font-size="14.00">destroy</text>
<text text-anchor="start" x="170" y="-307.3" font-family="Times,serif" font-size="14.00">edit</text>
<text text-anchor="start" x="170" y="-292.3" font-family="Times,serif" font-size="14.00">index</text>
<text text-anchor="start" x="170" y="-277.3" font-family="Times,serif" font-size="14.00">new</text>
<text text-anchor="start" x="170" y="-262.3" font-family="Times,serif" font-size="14.00">show</text>
<text text-anchor="start" x="170" y="-247.3" font-family="Times,serif" font-size="14.00">update</text>
<polyline fill="none" stroke="black" points="162,-239.5 300,-239.5 "/>
<polyline fill="none" stroke="black" points="162,-215.5 300,-215.5 "/>
<text text-anchor="start" x="170" y="-200.3" font-family="Times,serif" font-size="14.00">_layout</text>
<text text-anchor="start" x="170" y="-185.3" font-family="Times,serif" font-size="14.00">set_subsidiary</text>
<text text-anchor="start" x="170" y="-170.3" font-family="Times,serif" font-size="14.00">subsidiary_params</text>
</g>
<!-- UserActivitiesController -->
<g id="node13" class="node"><title>UserActivitiesController</title>
<path fill="none" stroke="black" d="M-78,107.5C-78,107.5 48,107.5 48,107.5 54,107.5 60,101.5 60,95.5 60,95.5 60,-93.5 60,-93.5 60,-99.5 54,-105.5 48,-105.5 48,-105.5 -78,-105.5 -78,-105.5 -84,-105.5 -90,-99.5 -90,-93.5 -90,-93.5 -90,95.5 -90,95.5 -90,101.5 -84,107.5 -78,107.5"/>
<text text-anchor="middle" x="-15" y="-90.3" font-family="Times,serif" font-size="14.00">UserActivitiesController</text>
<polyline fill="none" stroke="black" points="-90,-82.5 60,-82.5 "/>
<text text-anchor="start" x="-82" y="-67.3" font-family="Times,serif" font-size="14.00">create</text>
<text text-anchor="start" x="-82" y="-52.3" font-family="Times,serif" font-size="14.00">destroy</text>
<text text-anchor="start" x="-82" y="-37.3" font-family="Times,serif" font-size="14.00">edit</text>
<text text-anchor="start" x="-82" y="-22.3" font-family="Times,serif" font-size="14.00">index</text>
<text text-anchor="start" x="-82" y="-7.3" font-family="Times,serif" font-size="14.00">new</text>
<text text-anchor="start" x="-82" y="7.7" font-family="Times,serif" font-size="14.00">show</text>
<text text-anchor="start" x="-82" y="22.7" font-family="Times,serif" font-size="14.00">update</text>
<polyline fill="none" stroke="black" points="-90,30.5 60,30.5 "/>
<polyline fill="none" stroke="black" points="-90,54.5 60,54.5 "/>
<text text-anchor="start" x="-82" y="69.7" font-family="Times,serif" font-size="14.00">_layout</text>
<text text-anchor="start" x="-82" y="84.7" font-family="Times,serif" font-size="14.00">set_user_activity</text>
<text text-anchor="start" x="-82" y="99.7" font-family="Times,serif" font-size="14.00">user_activity_params</text>
</g>
</g>
</svg>
