<?xml version="1.0" encoding="UTF-8" standalone="no"?>
<!DOCTYPE svg PUBLIC "-//W3C//DTD SVG 1.1//EN"
 "http://www.w3.org/Graphics/SVG/1.1/DTD/svg11.dtd">
<!-- Generated by graphviz version 2.38.0 (20140413.2041)
 -->
<!-- Title: controllers_diagram Pages: 1 -->
<svg width="783pt" height="661pt"
 viewBox="0.00 0.00 783.50 661.50" xmlns="http://www.w3.org/2000/svg" xmlns:xlink="http://www.w3.org/1999/xlink">
<g id="graph0" class="graph" transform="scale(1 1) rotate(0) translate(309.5 405.5)">
<title>controllers_diagram</title>
<polygon fill="none" stroke="none" points="-309.5,256 -309.5,-405.5 474,-405.5 474,256 -309.5,256"/>
<!-- _diagram_info -->
<g id="node1" class="node"><title>_diagram_info</title>
<text text-anchor="start" x="-244" y="152.4" font-family="Times,serif" font-size="13.00">Controllers diagram</text>
<text text-anchor="start" x="-244" y="166.4" font-family="Times,serif" font-size="13.00">Date: Mar 20 2017 &#45; 12:10</text>
<text text-anchor="start" x="-244" y="180.4" font-family="Times,serif" font-size="13.00">Migration version: 20170320112037</text>
<text text-anchor="start" x="-244" y="194.4" font-family="Times,serif" font-size="13.00">Generated by RailRoady 1.5.2</text>
<text text-anchor="start" x="-244" y="208.4" font-family="Times,serif" font-size="13.00">http://railroady.prestonlee.com</text>
</g>
<!-- UbicationsController -->
<g id="node2" class="node"><title>UbicationsController</title>
<path fill="none" stroke="black" d="M102.5,89.5C102.5,89.5 209.5,89.5 209.5,89.5 215.5,89.5 221.5,83.5 221.5,77.5 221.5,77.5 221.5,-111.5 221.5,-111.5 221.5,-117.5 215.5,-123.5 209.5,-123.5 209.5,-123.5 102.5,-123.5 102.5,-123.5 96.5,-123.5 90.5,-117.5 90.5,-111.5 90.5,-111.5 90.5,77.5 90.5,77.5 90.5,83.5 96.5,89.5 102.5,89.5"/>
<text text-anchor="middle" x="156" y="-108.3" font-family="Times,serif" font-size="14.00">UbicationsController</text>
<polyline fill="none" stroke="black" points="90.5,-100.5 221.5,-100.5 "/>
<text text-anchor="start" x="98.5" y="-85.3" font-family="Times,serif" font-size="14.00">create</text>
<text text-anchor="start" x="98.5" y="-70.3" font-family="Times,serif" font-size="14.00">destroy</text>
<text text-anchor="start" x="98.5" y="-55.3" font-family="Times,serif" font-size="14.00">edit</text>
<text text-anchor="start" x="98.5" y="-40.3" font-family="Times,serif" font-size="14.00">index</text>
<text text-anchor="start" x="98.5" y="-25.3" font-family="Times,serif" font-size="14.00">new</text>
<text text-anchor="start" x="98.5" y="-10.3" font-family="Times,serif" font-size="14.00">show</text>
<text text-anchor="start" x="98.5" y="4.7" font-family="Times,serif" font-size="14.00">update</text>
<polyline fill="none" stroke="black" points="90.5,12.5 221.5,12.5 "/>
<polyline fill="none" stroke="black" points="90.5,36.5 221.5,36.5 "/>
<text text-anchor="start" x="98.5" y="51.7" font-family="Times,serif" font-size="14.00">_layout</text>
<text text-anchor="start" x="98.5" y="66.7" font-family="Times,serif" font-size="14.00">set_ubication</text>
<text text-anchor="start" x="98.5" y="81.7" font-family="Times,serif" font-size="14.00">ubication_params</text>
</g>
<!-- ReservationsController -->
<g id="node3" class="node"><title>ReservationsController</title>
<path fill="none" stroke="black" d="M-78,-144.5C-78,-144.5 40,-144.5 40,-144.5 46,-144.5 52,-150.5 52,-156.5 52,-156.5 52,-345.5 52,-345.5 52,-351.5 46,-357.5 40,-357.5 40,-357.5 -78,-357.5 -78,-357.5 -84,-357.5 -90,-351.5 -90,-345.5 -90,-345.5 -90,-156.5 -90,-156.5 -90,-150.5 -84,-144.5 -78,-144.5"/>
<text text-anchor="middle" x="-19" y="-342.3" font-family="Times,serif" font-size="14.00">ReservationsController</text>
<polyline fill="none" stroke="black" points="-90,-334.5 52,-334.5 "/>
<text text-anchor="start" x="-82" y="-319.3" font-family="Times,serif" font-size="14.00">create</text>
<text text-anchor="start" x="-82" y="-304.3" font-family="Times,serif" font-size="14.00">destroy</text>
<text text-anchor="start" x="-82" y="-289.3" font-family="Times,serif" font-size="14.00">edit</text>
<text text-anchor="start" x="-82" y="-274.3" font-family="Times,serif" font-size="14.00">index</text>
<text text-anchor="start" x="-82" y="-259.3" font-family="Times,serif" font-size="14.00">new</text>
<text text-anchor="start" x="-82" y="-244.3" font-family="Times,serif" font-size="14.00">show</text>
<text text-anchor="start" x="-82" y="-229.3" font-family="Times,serif" font-size="14.00">update</text>
<polyline fill="none" stroke="black" points="-90,-221.5 52,-221.5 "/>
<polyline fill="none" stroke="black" points="-90,-197.5 52,-197.5 "/>
<text text-anchor="start" x="-82" y="-182.3" font-family="Times,serif" font-size="14.00">_layout</text>
<text text-anchor="start" x="-82" y="-167.3" font-family="Times,serif" font-size="14.00">reservation_params</text>
<text text-anchor="start" x="-82" y="-152.3" font-family="Times,serif" font-size="14.00">set_reservation</text>
</g>
<!-- Users::RegistrationsController -->
<g id="node4" class="node"><title>Users::RegistrationsController</title>
<path fill="none" stroke="black" d="M12,251C12,251 194,251 194,251 200,251 206,245 206,239 206,239 206,155 206,155 206,149 200,143 194,143 194,143 12,143 12,143 6,143 0,149 0,155 0,155 0,239 0,239 0,245 6,251 12,251"/>
<text text-anchor="middle" x="103" y="158.2" font-family="Times,serif" font-size="14.00">Users::RegistrationsController</text>
<polyline fill="none" stroke="black" points="0,166 206,166 "/>
<text text-anchor="start" x="8" y="181.2" font-family="Times,serif" font-size="14.00">configure_account_update_params</text>
<text text-anchor="start" x="8" y="196.2" font-family="Times,serif" font-size="14.00">configure_sign_up_params</text>
<polyline fill="none" stroke="black" points="0,204 206,204 "/>
<polyline fill="none" stroke="black" points="0,228 206,228 "/>
<text text-anchor="start" x="8" y="243.2" font-family="Times,serif" font-size="14.00">_layout</text>
</g>
<!-- Users::PasswordsController -->
<g id="node5" class="node"><title>Users::PasswordsController</title>
<path fill="none" stroke="black" d="M-276.5,-181C-276.5,-181 -133.5,-181 -133.5,-181 -127.5,-181 -121.5,-187 -121.5,-193 -121.5,-193 -121.5,-263 -121.5,-263 -121.5,-269 -127.5,-275 -133.5,-275 -133.5,-275 -276.5,-275 -276.5,-275 -282.5,-275 -288.5,-269 -288.5,-263 -288.5,-263 -288.5,-193 -288.5,-193 -288.5,-187 -282.5,-181 -276.5,-181"/>
<text text-anchor="middle" x="-205" y="-259.8" font-family="Times,serif" font-size="14.00">Users::PasswordsController</text>
<polyline fill="none" stroke="black" points="-288.5,-252 -121.5,-252 "/>
<polyline fill="none" stroke="black" points="-288.5,-228 -121.5,-228 "/>
<polyline fill="none" stroke="black" points="-288.5,-204 -121.5,-204 "/>
<text text-anchor="start" x="-280.5" y="-188.8" font-family="Times,serif" font-size="14.00">_layout</text>
</g>
<!-- Users::UnlocksController -->
<g id="node6" class="node"><title>Users::UnlocksController</title>
<path fill="none" stroke="black" d="M-275.5,-55C-275.5,-55 -144.5,-55 -144.5,-55 -138.5,-55 -132.5,-61 -132.5,-67 -132.5,-67 -132.5,-137 -132.5,-137 -132.5,-143 -138.5,-149 -144.5,-149 -144.5,-149 -275.5,-149 -275.5,-149 -281.5,-149 -287.5,-143 -287.5,-137 -287.5,-137 -287.5,-67 -287.5,-67 -287.5,-61 -281.5,-55 -275.5,-55"/>
<text text-anchor="middle" x="-210" y="-133.8" font-family="Times,serif" font-size="14.00">Users::UnlocksController</text>
<polyline fill="none" stroke="black" points="-287.5,-126 -132.5,-126 "/>
<polyline fill="none" stroke="black" points="-287.5,-102 -132.5,-102 "/>
<polyline fill="none" stroke="black" points="-287.5,-78 -132.5,-78 "/>
<text text-anchor="start" x="-279.5" y="-62.8" font-family="Times,serif" font-size="14.00">_layout</text>
</g>
<!-- Users::ConfirmationsController -->
<g id="node7" class="node"><title>Users::ConfirmationsController</title>
<path fill="none" stroke="black" d="M-293.5,-307C-293.5,-307 -128.5,-307 -128.5,-307 -122.5,-307 -116.5,-313 -116.5,-319 -116.5,-319 -116.5,-389 -116.5,-389 -116.5,-395 -122.5,-401 -128.5,-401 -128.5,-401 -293.5,-401 -293.5,-401 -299.5,-401 -305.5,-395 -305.5,-389 -305.5,-389 -305.5,-319 -305.5,-319 -305.5,-313 -299.5,-307 -293.5,-307"/>
<text text-anchor="middle" x="-211" y="-385.8" font-family="Times,serif" font-size="14.00">Users::ConfirmationsController</text>
<polyline fill="none" stroke="black" points="-305.5,-378 -116.5,-378 "/>
<polyline fill="none" stroke="black" points="-305.5,-354 -116.5,-354 "/>
<polyline fill="none" stroke="black" points="-305.5,-330 -116.5,-330 "/>
<text text-anchor="start" x="-297.5" y="-314.8" font-family="Times,serif" font-size="14.00">_layout</text>
</g>
<!-- Users::OmniauthCallbacksController -->
<g id="node8" class="node"><title>Users::OmniauthCallbacksController</title>
<path fill="none" stroke="black" d="M264,-1C264,-1 458,-1 458,-1 464,-1 470,-7 470,-13 470,-13 470,-83 470,-83 470,-89 464,-95 458,-95 458,-95 264,-95 264,-95 258,-95 252,-89 252,-83 252,-83 252,-13 252,-13 252,-7 258,-1 264,-1"/>
<text text-anchor="middle" x="361" y="-79.8" font-family="Times,serif" font-size="14.00">Users::OmniauthCallbacksController</text>
<polyline fill="none" stroke="black" points="252,-72 470,-72 "/>
<polyline fill="none" stroke="black" points="252,-48 470,-48 "/>
<polyline fill="none" stroke="black" points="252,-24 470,-24 "/>
<text text-anchor="start" x="260" y="-8.8" font-family="Times,serif" font-size="14.00">_layout</text>
</g>
<!-- Users::SessionsController -->
<g id="node9" class="node"><title>Users::SessionsController</title>
<path fill="none" stroke="black" d="M-275.5,71C-275.5,71 -142.5,71 -142.5,71 -136.5,71 -130.5,65 -130.5,59 -130.5,59 -130.5,-11 -130.5,-11 -130.5,-17 -136.5,-23 -142.5,-23 -142.5,-23 -275.5,-23 -275.5,-23 -281.5,-23 -287.5,-17 -287.5,-11 -287.5,-11 -287.5,59 -287.5,59 -287.5,65 -281.5,71 -275.5,71"/>
<text text-anchor="middle" x="-209" y="-7.8" font-family="Times,serif" font-size="14.00">Users::SessionsController</text>
<polyline fill="none" stroke="black" points="-287.5,-0 -130.5,-0 "/>
<polyline fill="none" stroke="black" points="-287.5,24 -130.5,24 "/>
<polyline fill="none" stroke="black" points="-287.5,48 -130.5,48 "/>
<text text-anchor="start" x="-279.5" y="63.2" font-family="Times,serif" font-size="14.00">_layout</text>
</g>
<!-- ActivitiesController -->
<g id="node10" class="node"><title>ActivitiesController</title>
<path fill="none" stroke="black" d="M173.5,-163C173.5,-163 274.5,-163 274.5,-163 280.5,-163 286.5,-169 286.5,-175 286.5,-175 286.5,-379 286.5,-379 286.5,-385 280.5,-391 274.5,-391 274.5,-391 173.5,-391 173.5,-391 167.5,-391 161.5,-385 161.5,-379 161.5,-379 161.5,-175 161.5,-175 161.5,-169 167.5,-163 173.5,-163"/>
<text text-anchor="middle" x="224" y="-375.8" font-family="Times,serif" font-size="14.00">ActivitiesController</text>
<polyline fill="none" stroke="black" points="161.5,-368 286.5,-368 "/>
<text text-anchor="start" x="169.5" y="-352.8" font-family="Times,serif" font-size="14.00">create</text>
<text text-anchor="start" x="169.5" y="-337.8" font-family="Times,serif" font-size="14.00">destroy</text>
<text text-anchor="start" x="169.5" y="-322.8" font-family="Times,serif" font-size="14.00">edit</text>
<text text-anchor="start" x="169.5" y="-307.8" font-family="Times,serif" font-size="14.00">index</text>
<text text-anchor="start" x="169.5" y="-292.8" font-family="Times,serif" font-size="14.00">new</text>
<text text-anchor="start" x="169.5" y="-277.8" font-family="Times,serif" font-size="14.00">show</text>
<text text-anchor="start" x="169.5" y="-262.8" font-family="Times,serif" font-size="14.00">takeroom</text>
<text text-anchor="start" x="169.5" y="-247.8" font-family="Times,serif" font-size="14.00">update</text>
<polyline fill="none" stroke="black" points="161.5,-240 286.5,-240 "/>
<polyline fill="none" stroke="black" points="161.5,-216 286.5,-216 "/>
<text text-anchor="start" x="169.5" y="-200.8" font-family="Times,serif" font-size="14.00">_layout</text>
<text text-anchor="start" x="169.5" y="-185.8" font-family="Times,serif" font-size="14.00">activity_params</text>
<text text-anchor="start" x="169.5" y="-170.8" font-family="Times,serif" font-size="14.00">set_activity</text>
</g>
<!-- ApplicationController -->
<g id="node11" class="node"><title>ApplicationController</title>
<path fill="none" stroke="black" d="M336,-127C336,-127 448,-127 448,-127 454,-127 460,-133 460,-139 460,-139 460,-209 460,-209 460,-215 454,-221 448,-221 448,-221 336,-221 336,-221 330,-221 324,-215 324,-209 324,-209 324,-139 324,-139 324,-133 330,-127 336,-127"/>
<text text-anchor="middle" x="392" y="-205.8" font-family="Times,serif" font-size="14.00">ApplicationController</text>
<polyline fill="none" stroke="black" points="324,-198 460,-198 "/>
<polyline fill="none" stroke="black" points="324,-174 460,-174 "/>
<polyline fill="none" stroke="black" points="324,-150 460,-150 "/>
<text text-anchor="start" x="332" y="-134.8" font-family="Times,serif" font-size="14.00">_layout</text>
</g>
<!-- SubsidiariesController -->
<g id="node12" class="node"><title>SubsidiariesController</title>
<path fill="none" stroke="black" d="M264,251.5C264,251.5 378,251.5 378,251.5 384,251.5 390,245.5 390,239.5 390,239.5 390,50.5 390,50.5 390,44.5 384,38.5 378,38.5 378,38.5 264,38.5 264,38.5 258,38.5 252,44.5 252,50.5 252,50.5 252,239.5 252,239.5 252,245.5 258,251.5 264,251.5"/>
<text text-anchor="middle" x="321" y="53.7" font-family="Times,serif" font-size="14.00">SubsidiariesController</text>
<polyline fill="none" stroke="black" points="252,61.5 390,61.5 "/>
<text text-anchor="start" x="260" y="76.7" font-family="Times,serif" font-size="14.00">create</text>
<text text-anchor="start" x="260" y="91.7" font-family="Times,serif" font-size="14.00">destroy</text>
<text text-anchor="start" x="260" y="106.7" font-family="Times,serif" font-size="14.00">edit</text>
<text text-anchor="start" x="260" y="121.7" font-family="Times,serif" font-size="14.00">index</text>
<text text-anchor="start" x="260" y="136.7" font-family="Times,serif" font-size="14.00">new</text>
<text text-anchor="start" x="260" y="151.7" font-family="Times,serif" font-size="14.00">show</text>
<text text-anchor="start" x="260" y="166.7" font-family="Times,serif" font-size="14.00">update</text>
<polyline fill="none" stroke="black" points="252,174.5 390,174.5 "/>
<polyline fill="none" stroke="black" points="252,198.5 390,198.5 "/>
<text text-anchor="start" x="260" y="213.7" font-family="Times,serif" font-size="14.00">_layout</text>
<text text-anchor="start" x="260" y="228.7" font-family="Times,serif" font-size="14.00">set_subsidiary</text>
<text text-anchor="start" x="260" y="243.7" font-family="Times,serif" font-size="14.00">subsidiary_params</text>
</g>
<!-- UserActivitiesController -->
<g id="node13" class="node"><title>UserActivitiesController</title>
<path fill="none" stroke="black" d="M-78,107.5C-78,107.5 48,107.5 48,107.5 54,107.5 60,101.5 60,95.5 60,95.5 60,-93.5 60,-93.5 60,-99.5 54,-105.5 48,-105.5 48,-105.5 -78,-105.5 -78,-105.5 -84,-105.5 -90,-99.5 -90,-93.5 -90,-93.5 -90,95.5 -90,95.5 -90,101.5 -84,107.5 -78,107.5"/>
<text text-anchor="middle" x="-15" y="-90.3" font-family="Times,serif" font-size="14.00">UserActivitiesController</text>
<polyline fill="none" stroke="black" points="-90,-82.5 60,-82.5 "/>
<text text-anchor="start" x="-82" y="-67.3" font-family="Times,serif" font-size="14.00">create</text>
<text text-anchor="start" x="-82" y="-52.3" font-family="Times,serif" font-size="14.00">destroy</text>
<text text-anchor="start" x="-82" y="-37.3" font-family="Times,serif" font-size="14.00">edit</text>
<text text-anchor="start" x="-82" y="-22.3" font-family="Times,serif" font-size="14.00">index</text>
<text text-anchor="start" x="-82" y="-7.3" font-family="Times,serif" font-size="14.00">new</text>
<text text-anchor="start" x="-82" y="7.7" font-family="Times,serif" font-size="14.00">show</text>
<text text-anchor="start" x="-82" y="22.7" font-family="Times,serif" font-size="14.00">update</text>
<polyline fill="none" stroke="black" points="-90,30.5 60,30.5 "/>
<polyline fill="none" stroke="black" points="-90,54.5 60,54.5 "/>
<text text-anchor="start" x="-82" y="69.7" font-family="Times,serif" font-size="14.00">_layout</text>
<text text-anchor="start" x="-82" y="84.7" font-family="Times,serif" font-size="14.00">set_user_activity</text>
<text text-anchor="start" x="-82" y="99.7" font-family="Times,serif" font-size="14.00">user_activity_params</text>
</g>
</g>
</svg>
