<?xml version="1.0" encoding="UTF-8" standalone="no"?>
<!DOCTYPE svg PUBLIC "-//W3C//DTD SVG 1.1//EN"
 "http://www.w3.org/Graphics/SVG/1.1/DTD/svg11.dtd">
<!-- Generated by graphviz version 2.38.0 (20140413.2041)
 -->
<!-- Title: controllers_diagram Pages: 1 -->
<svg width="786pt" height="732pt"
 viewBox="0.00 0.00 786.50 732.00" xmlns="http://www.w3.org/2000/svg" xmlns:xlink="http://www.w3.org/1999/xlink">
<g id="graph0" class="graph" transform="scale(1 1) rotate(0) translate(309.5 405.5)">
<title>controllers_diagram</title>
<polygon fill="none" stroke="none" points="-309.5,326.5 -309.5,-405.5 477,-405.5 477,326.5 -309.5,326.5"/>
<!-- _diagram_info -->
<g id="node1" class="node"><title>_diagram_info</title>
<text text-anchor="start" x="-230" y="174.4" font-family="Times,serif" font-size="13.00">Controllers diagram</text>
<text text-anchor="start" x="-230" y="188.4" font-family="Times,serif" font-size="13.00">Date: Mar 10 2017 &#45; 17:48</text>
<text text-anchor="start" x="-230" y="202.4" font-family="Times,serif" font-size="13.00">Migration version: 20170310203545</text>
<text text-anchor="start" x="-230" y="216.4" font-family="Times,serif" font-size="13.00">Generated by RailRoady 1.5.2</text>
<text text-anchor="start" x="-230" y="230.4" font-family="Times,serif" font-size="13.00">http://railroady.prestonlee.com</text>
</g>
<!-- UbicationsController -->
<g id="node2" class="node"><title>UbicationsController</title>
<path fill="none" stroke="black" d="M-72.5,-136.5C-72.5,-136.5 34.5,-136.5 34.5,-136.5 40.5,-136.5 46.5,-142.5 46.5,-148.5 46.5,-148.5 46.5,-337.5 46.5,-337.5 46.5,-343.5 40.5,-349.5 34.5,-349.5 34.5,-349.5 -72.5,-349.5 -72.5,-349.5 -78.5,-349.5 -84.5,-343.5 -84.5,-337.5 -84.5,-337.5 -84.5,-148.5 -84.5,-148.5 -84.5,-142.5 -78.5,-136.5 -72.5,-136.5"/>
<text text-anchor="middle" x="-19" y="-334.3" font-family="Times,serif" font-size="14.00">UbicationsController</text>
<polyline fill="none" stroke="black" points="-84.5,-326.5 46.5,-326.5 "/>
<text text-anchor="start" x="-76.5" y="-311.3" font-family="Times,serif" font-size="14.00">create</text>
<text text-anchor="start" x="-76.5" y="-296.3" font-family="Times,serif" font-size="14.00">destroy</text>
<text text-anchor="start" x="-76.5" y="-281.3" font-family="Times,serif" font-size="14.00">edit</text>
<text text-anchor="start" x="-76.5" y="-266.3" font-family="Times,serif" font-size="14.00">index</text>
<text text-anchor="start" x="-76.5" y="-251.3" font-family="Times,serif" font-size="14.00">new</text>
<text text-anchor="start" x="-76.5" y="-236.3" font-family="Times,serif" font-size="14.00">show</text>
<text text-anchor="start" x="-76.5" y="-221.3" font-family="Times,serif" font-size="14.00">update</text>
<polyline fill="none" stroke="black" points="-84.5,-213.5 46.5,-213.5 "/>
<polyline fill="none" stroke="black" points="-84.5,-189.5 46.5,-189.5 "/>
<text text-anchor="start" x="-76.5" y="-174.3" font-family="Times,serif" font-size="14.00">_layout</text>
<text text-anchor="start" x="-76.5" y="-159.3" font-family="Times,serif" font-size="14.00">set_ubication</text>
<text text-anchor="start" x="-76.5" y="-144.3" font-family="Times,serif" font-size="14.00">ubication_params</text>
</g>
<!-- ReservationsController -->
<g id="node3" class="node"><title>ReservationsController</title>
<path fill="none" stroke="black" d="M-73,118.5C-73,118.5 45,118.5 45,118.5 51,118.5 57,112.5 57,106.5 57,106.5 57,-82.5 57,-82.5 57,-88.5 51,-94.5 45,-94.5 45,-94.5 -73,-94.5 -73,-94.5 -79,-94.5 -85,-88.5 -85,-82.5 -85,-82.5 -85,106.5 -85,106.5 -85,112.5 -79,118.5 -73,118.5"/>
<text text-anchor="middle" x="-14" y="-79.3" font-family="Times,serif" font-size="14.00">ReservationsController</text>
<polyline fill="none" stroke="black" points="-85,-71.5 57,-71.5 "/>
<text text-anchor="start" x="-77" y="-56.3" font-family="Times,serif" font-size="14.00">create</text>
<text text-anchor="start" x="-77" y="-41.3" font-family="Times,serif" font-size="14.00">destroy</text>
<text text-anchor="start" x="-77" y="-26.3" font-family="Times,serif" font-size="14.00">edit</text>
<text text-anchor="start" x="-77" y="-11.3" font-family="Times,serif" font-size="14.00">index</text>
<text text-anchor="start" x="-77" y="3.7" font-family="Times,serif" font-size="14.00">new</text>
<text text-anchor="start" x="-77" y="18.7" font-family="Times,serif" font-size="14.00">show</text>
<text text-anchor="start" x="-77" y="33.7" font-family="Times,serif" font-size="14.00">update</text>
<polyline fill="none" stroke="black" points="-85,41.5 57,41.5 "/>
<polyline fill="none" stroke="black" points="-85,65.5 57,65.5 "/>
<text text-anchor="start" x="-77" y="80.7" font-family="Times,serif" font-size="14.00">_layout</text>
<text text-anchor="start" x="-77" y="95.7" font-family="Times,serif" font-size="14.00">reservation_params</text>
<text text-anchor="start" x="-77" y="110.7" font-family="Times,serif" font-size="14.00">set_reservation</text>
</g>
<!-- Users::RegistrationsController -->
<g id="node4" class="node"><title>Users::RegistrationsController</title>
<path fill="none" stroke="black" d="M97,220C97,220 279,220 279,220 285,220 291,214 291,208 291,208 291,124 291,124 291,118 285,112 279,112 279,112 97,112 97,112 91,112 85,118 85,124 85,124 85,208 85,208 85,214 91,220 97,220"/>
<text text-anchor="middle" x="188" y="127.2" font-family="Times,serif" font-size="14.00">Users::RegistrationsController</text>
<polyline fill="none" stroke="black" points="85,135 291,135 "/>
<text text-anchor="start" x="93" y="150.2" font-family="Times,serif" font-size="14.00">configure_account_update_params</text>
<text text-anchor="start" x="93" y="165.2" font-family="Times,serif" font-size="14.00">configure_sign_up_params</text>
<polyline fill="none" stroke="black" points="85,173 291,173 "/>
<polyline fill="none" stroke="black" points="85,197 291,197 "/>
<text text-anchor="start" x="93" y="212.2" font-family="Times,serif" font-size="14.00">_layout</text>
</g>
<!-- Users::PasswordsController -->
<g id="node5" class="node"><title>Users::PasswordsController</title>
<path fill="none" stroke="black" d="M-277.5,-171C-277.5,-171 -134.5,-171 -134.5,-171 -128.5,-171 -122.5,-177 -122.5,-183 -122.5,-183 -122.5,-253 -122.5,-253 -122.5,-259 -128.5,-265 -134.5,-265 -134.5,-265 -277.5,-265 -277.5,-265 -283.5,-265 -289.5,-259 -289.5,-253 -289.5,-253 -289.5,-183 -289.5,-183 -289.5,-177 -283.5,-171 -277.5,-171"/>
<text text-anchor="middle" x="-206" y="-249.8" font-family="Times,serif" font-size="14.00">Users::PasswordsController</text>
<polyline fill="none" stroke="black" points="-289.5,-242 -122.5,-242 "/>
<polyline fill="none" stroke="black" points="-289.5,-218 -122.5,-218 "/>
<polyline fill="none" stroke="black" points="-289.5,-194 -122.5,-194 "/>
<text text-anchor="start" x="-281.5" y="-178.8" font-family="Times,serif" font-size="14.00">_layout</text>
</g>
<!-- Users::UnlocksController -->
<g id="node6" class="node"><title>Users::UnlocksController</title>
<path fill="none" stroke="black" d="M-259.5,-35C-259.5,-35 -128.5,-35 -128.5,-35 -122.5,-35 -116.5,-41 -116.5,-47 -116.5,-47 -116.5,-117 -116.5,-117 -116.5,-123 -122.5,-129 -128.5,-129 -128.5,-129 -259.5,-129 -259.5,-129 -265.5,-129 -271.5,-123 -271.5,-117 -271.5,-117 -271.5,-47 -271.5,-47 -271.5,-41 -265.5,-35 -259.5,-35"/>
<text text-anchor="middle" x="-194" y="-113.8" font-family="Times,serif" font-size="14.00">Users::UnlocksController</text>
<polyline fill="none" stroke="black" points="-271.5,-106 -116.5,-106 "/>
<polyline fill="none" stroke="black" points="-271.5,-82 -116.5,-82 "/>
<polyline fill="none" stroke="black" points="-271.5,-58 -116.5,-58 "/>
<text text-anchor="start" x="-263.5" y="-42.8" font-family="Times,serif" font-size="14.00">_layout</text>
</g>
<!-- Users::ConfirmationsController -->
<g id="node7" class="node"><title>Users::ConfirmationsController</title>
<path fill="none" stroke="black" d="M-293.5,-307C-293.5,-307 -128.5,-307 -128.5,-307 -122.5,-307 -116.5,-313 -116.5,-319 -116.5,-319 -116.5,-389 -116.5,-389 -116.5,-395 -122.5,-401 -128.5,-401 -128.5,-401 -293.5,-401 -293.5,-401 -299.5,-401 -305.5,-395 -305.5,-389 -305.5,-389 -305.5,-319 -305.5,-319 -305.5,-313 -299.5,-307 -293.5,-307"/>
<text text-anchor="middle" x="-211" y="-385.8" font-family="Times,serif" font-size="14.00">Users::ConfirmationsController</text>
<polyline fill="none" stroke="black" points="-305.5,-378 -116.5,-378 "/>
<polyline fill="none" stroke="black" points="-305.5,-354 -116.5,-354 "/>
<polyline fill="none" stroke="black" points="-305.5,-330 -116.5,-330 "/>
<text text-anchor="start" x="-297.5" y="-314.8" font-family="Times,serif" font-size="14.00">_layout</text>
</g>
<!-- Users::OmniauthCallbacksController -->
<g id="node8" class="node"><title>Users::OmniauthCallbacksController</title>
<path fill="none" stroke="black" d="M267,84C267,84 461,84 461,84 467,84 473,78 473,72 473,72 473,2 473,2 473,-4 467,-10 461,-10 461,-10 267,-10 267,-10 261,-10 255,-4 255,2 255,2 255,72 255,72 255,78 261,84 267,84"/>
<text text-anchor="middle" x="364" y="5.2" font-family="Times,serif" font-size="14.00">Users::OmniauthCallbacksController</text>
<polyline fill="none" stroke="black" points="255,13 473,13 "/>
<polyline fill="none" stroke="black" points="255,37 473,37 "/>
<polyline fill="none" stroke="black" points="255,61 473,61 "/>
<text text-anchor="start" x="263" y="76.2" font-family="Times,serif" font-size="14.00">_layout</text>
</g>
<!-- Users::SessionsController -->
<g id="node9" class="node"><title>Users::SessionsController</title>
<path fill="none" stroke="black" d="M-259.5,101C-259.5,101 -126.5,101 -126.5,101 -120.5,101 -114.5,95 -114.5,89 -114.5,89 -114.5,19 -114.5,19 -114.5,13 -120.5,7 -126.5,7 -126.5,7 -259.5,7 -259.5,7 -265.5,7 -271.5,13 -271.5,19 -271.5,19 -271.5,89 -271.5,89 -271.5,95 -265.5,101 -259.5,101"/>
<text text-anchor="middle" x="-193" y="22.2" font-family="Times,serif" font-size="14.00">Users::SessionsController</text>
<polyline fill="none" stroke="black" points="-271.5,30 -114.5,30 "/>
<polyline fill="none" stroke="black" points="-271.5,54 -114.5,54 "/>
<polyline fill="none" stroke="black" points="-271.5,78 -114.5,78 "/>
<text text-anchor="start" x="-263.5" y="93.2" font-family="Times,serif" font-size="14.00">_layout</text>
</g>
<!-- ActivitiesController -->
<g id="node10" class="node"><title>ActivitiesController</title>
<path fill="none" stroke="black" d="M181.5,-170.5C181.5,-170.5 282.5,-170.5 282.5,-170.5 288.5,-170.5 294.5,-176.5 294.5,-182.5 294.5,-182.5 294.5,-371.5 294.5,-371.5 294.5,-377.5 288.5,-383.5 282.5,-383.5 282.5,-383.5 181.5,-383.5 181.5,-383.5 175.5,-383.5 169.5,-377.5 169.5,-371.5 169.5,-371.5 169.5,-182.5 169.5,-182.5 169.5,-176.5 175.5,-170.5 181.5,-170.5"/>
<text text-anchor="middle" x="232" y="-368.3" font-family="Times,serif" font-size="14.00">ActivitiesController</text>
<polyline fill="none" stroke="black" points="169.5,-360.5 294.5,-360.5 "/>
<text text-anchor="start" x="177.5" y="-345.3" font-family="Times,serif" font-size="14.00">create</text>
<text text-anchor="start" x="177.5" y="-330.3" font-family="Times,serif" font-size="14.00">destroy</text>
<text text-anchor="start" x="177.5" y="-315.3" font-family="Times,serif" font-size="14.00">edit</text>
<text text-anchor="start" x="177.5" y="-300.3" font-family="Times,serif" font-size="14.00">index</text>
<text text-anchor="start" x="177.5" y="-285.3" font-family="Times,serif" font-size="14.00">new</text>
<text text-anchor="start" x="177.5" y="-270.3" font-family="Times,serif" font-size="14.00">show</text>
<text text-anchor="start" x="177.5" y="-255.3" font-family="Times,serif" font-size="14.00">update</text>
<polyline fill="none" stroke="black" points="169.5,-247.5 294.5,-247.5 "/>
<polyline fill="none" stroke="black" points="169.5,-223.5 294.5,-223.5 "/>
<text text-anchor="start" x="177.5" y="-208.3" font-family="Times,serif" font-size="14.00">_layout</text>
<text text-anchor="start" x="177.5" y="-193.3" font-family="Times,serif" font-size="14.00">activity_params</text>
<text text-anchor="start" x="177.5" y="-178.3" font-family="Times,serif" font-size="14.00">set_activity</text>
</g>
<!-- ApplicationController -->
<g id="node11" class="node"><title>ApplicationController</title>
<path fill="none" stroke="black" d="M335,322C335,322 447,322 447,322 453,322 459,316 459,310 459,310 459,240 459,240 459,234 453,228 447,228 447,228 335,228 335,228 329,228 323,234 323,240 323,240 323,310 323,310 323,316 329,322 335,322"/>
<text text-anchor="middle" x="391" y="243.2" font-family="Times,serif" font-size="14.00">ApplicationController</text>
<polyline fill="none" stroke="black" points="323,251 459,251 "/>
<polyline fill="none" stroke="black" points="323,275 459,275 "/>
<polyline fill="none" stroke="black" points="323,299 459,299 "/>
<text text-anchor="start" x="331" y="314.2" font-family="Times,serif" font-size="14.00">_layout</text>
</g>
<!-- SubsidiariesController -->
<g id="node12" class="node"><title>SubsidiariesController</title>
<path fill="none" stroke="black" d="M97,84.5C97,84.5 211,84.5 211,84.5 217,84.5 223,78.5 223,72.5 223,72.5 223,-116.5 223,-116.5 223,-122.5 217,-128.5 211,-128.5 211,-128.5 97,-128.5 97,-128.5 91,-128.5 85,-122.5 85,-116.5 85,-116.5 85,72.5 85,72.5 85,78.5 91,84.5 97,84.5"/>
<text text-anchor="middle" x="154" y="-113.3" font-family="Times,serif" font-size="14.00">SubsidiariesController</text>
<polyline fill="none" stroke="black" points="85,-105.5 223,-105.5 "/>
<text text-anchor="start" x="93" y="-90.3" font-family="Times,serif" font-size="14.00">create</text>
<text text-anchor="start" x="93" y="-75.3" font-family="Times,serif" font-size="14.00">destroy</text>
<text text-anchor="start" x="93" y="-60.3" font-family="Times,serif" font-size="14.00">edit</text>
<text text-anchor="start" x="93" y="-45.3" font-family="Times,serif" font-size="14.00">index</text>
<text text-anchor="start" x="93" y="-30.3" font-family="Times,serif" font-size="14.00">new</text>
<text text-anchor="start" x="93" y="-15.3" font-family="Times,serif" font-size="14.00">show</text>
<text text-anchor="start" x="93" y="-0.3" font-family="Times,serif" font-size="14.00">update</text>
<polyline fill="none" stroke="black" points="85,7.5 223,7.5 "/>
<polyline fill="none" stroke="black" points="85,31.5 223,31.5 "/>
<text text-anchor="start" x="93" y="46.7" font-family="Times,serif" font-size="14.00">_layout</text>
<text text-anchor="start" x="93" y="61.7" font-family="Times,serif" font-size="14.00">set_subsidiary</text>
<text text-anchor="start" x="93" y="76.7" font-family="Times,serif" font-size="14.00">subsidiary_params</text>
</g>
</g>
</svg>
