<?xml version="1.0" encoding="UTF-8" standalone="no"?>
<!DOCTYPE svg PUBLIC "-//W3C//DTD SVG 1.1//EN"
 "http://www.w3.org/Graphics/SVG/1.1/DTD/svg11.dtd">
<!-- Generated by graphviz version 2.38.0 (20140413.2041)
 -->
<!-- Title: models_diagram Pages: 1 -->
<svg width="915pt" height="739pt"
 viewBox="0.00 0.00 915.00 739.00" xmlns="http://www.w3.org/2000/svg" xmlns:xlink="http://www.w3.org/1999/xlink">
<g id="graph0" class="graph" transform="scale(1 1) rotate(0) translate(4 735)">
<title>models_diagram</title>
<polygon fill="none" stroke="none" points="-4,4 -4,-735 911,-735 911,4 -4,4"/>
<!-- _diagram_info -->
<g id="node1" class="node"><title>_diagram_info</title>
<text text-anchor="start" x="8" y="-687.1" font-family="Times,serif" font-size="13.00">Models diagram</text>
<text text-anchor="start" x="8" y="-673.1" font-family="Times,serif" font-size="13.00">Date: Mar 10 2017 &#45; 17:48</text>
<text text-anchor="start" x="8" y="-659.1" font-family="Times,serif" font-size="13.00">Migration version: 20170310203545</text>
<text text-anchor="start" x="8" y="-645.1" font-family="Times,serif" font-size="13.00">Generated by RailRoady 1.5.2</text>
<text text-anchor="start" x="8" y="-631.1" font-family="Times,serif" font-size="13.00">http://railroady.prestonlee.com</text>
</g>
<!-- UserActivity -->
<g id="node2" class="node"><title>UserActivity</title>
<path fill="none" stroke="black" d="M151,-173.5C151,-173.5 371,-173.5 371,-173.5 377,-173.5 383,-179.5 383,-185.5 383,-185.5 383,-267.5 383,-267.5 383,-273.5 377,-279.5 371,-279.5 371,-279.5 151,-279.5 151,-279.5 145,-279.5 139,-273.5 139,-267.5 139,-267.5 139,-185.5 139,-185.5 139,-179.5 145,-173.5 151,-173.5"/>
<text text-anchor="middle" x="261" y="-264.3" font-family="Times,serif" font-size="14.00">UserActivity</text>
<polyline fill="none" stroke="black" points="139,-256.5 383,-256.5 "/>
<text text-anchor="start" x="147" y="-241.3" font-family="Times,serif" font-size="14.00">id :integer</text>
<text text-anchor="start" x="147" y="-226.3" font-family="Times,serif" font-size="14.00">user_id :integer</text>
<text text-anchor="start" x="147" y="-211.3" font-family="Times,serif" font-size="14.00">activity_id :integer</text>
<text text-anchor="start" x="147" y="-196.3" font-family="Times,serif" font-size="14.00">created_at :timestamp without time zone</text>
<text text-anchor="start" x="147" y="-181.3" font-family="Times,serif" font-size="14.00">updated_at :timestamp without time zone</text>
</g>
<!-- Ubication -->
<g id="node3" class="node"><title>Ubication</title>
<path fill="none" stroke="black" d="M544,-0.5C544,-0.5 764,-0.5 764,-0.5 770,-0.5 776,-6.5 776,-12.5 776,-12.5 776,-109.5 776,-109.5 776,-115.5 770,-121.5 764,-121.5 764,-121.5 544,-121.5 544,-121.5 538,-121.5 532,-115.5 532,-109.5 532,-109.5 532,-12.5 532,-12.5 532,-6.5 538,-0.5 544,-0.5"/>
<text text-anchor="middle" x="654" y="-106.3" font-family="Times,serif" font-size="14.00">Ubication</text>
<polyline fill="none" stroke="black" points="532,-98.5 776,-98.5 "/>
<text text-anchor="start" x="540" y="-83.3" font-family="Times,serif" font-size="14.00">id :integer</text>
<text text-anchor="start" x="540" y="-68.3" font-family="Times,serif" font-size="14.00">name :character varying</text>
<text text-anchor="start" x="540" y="-53.3" font-family="Times,serif" font-size="14.00">capacity :integer</text>
<text text-anchor="start" x="540" y="-38.3" font-family="Times,serif" font-size="14.00">subsidiary_id :integer</text>
<text text-anchor="start" x="540" y="-23.3" font-family="Times,serif" font-size="14.00">created_at :timestamp without time zone</text>
<text text-anchor="start" x="540" y="-8.3" font-family="Times,serif" font-size="14.00">updated_at :timestamp without time zone</text>
</g>
<!-- ApplicationRecord -->
<g id="node4" class="node"><title>ApplicationRecord</title>
<ellipse fill="none" stroke="black" cx="571" cy="-662.5" rx="77.1866" ry="18"/>
<text text-anchor="middle" x="571" y="-658.8" font-family="Times,serif" font-size="14.00">ApplicationRecord</text>
</g>
<!-- Subsidiary -->
<g id="node5" class="node"><title>Subsidiary</title>
<path fill="none" stroke="black" d="M675,-166C675,-166 895,-166 895,-166 901,-166 907,-172 907,-178 907,-178 907,-275 907,-275 907,-281 901,-287 895,-287 895,-287 675,-287 675,-287 669,-287 663,-281 663,-275 663,-275 663,-178 663,-178 663,-172 669,-166 675,-166"/>
<text text-anchor="middle" x="785" y="-271.8" font-family="Times,serif" font-size="14.00">Subsidiary</text>
<polyline fill="none" stroke="black" points="663,-264 907,-264 "/>
<text text-anchor="start" x="671" y="-248.8" font-family="Times,serif" font-size="14.00">id :integer</text>
<text text-anchor="start" x="671" y="-233.8" font-family="Times,serif" font-size="14.00">name :character varying</text>
<text text-anchor="start" x="671" y="-218.8" font-family="Times,serif" font-size="14.00">address :character varying</text>
<text text-anchor="start" x="671" y="-203.8" font-family="Times,serif" font-size="14.00">phone :character varying</text>
<text text-anchor="start" x="671" y="-188.8" font-family="Times,serif" font-size="14.00">created_at :timestamp without time zone</text>
<text text-anchor="start" x="671" y="-173.8" font-family="Times,serif" font-size="14.00">updated_at :timestamp without time zone</text>
</g>
<!-- Subsidiary&#45;&gt;Ubication -->
<g id="edge1" class="edge"><title>Subsidiary&#45;&gt;Ubication</title>
<path fill="none" stroke="#e06d68" d="M731.813,-159.118C724.057,-149.437 716.061,-139.458 708.283,-129.75"/>
<ellipse fill="none" stroke="#e06d68" cx="734.463" cy="-162.425" rx="4.00002" ry="4.00002"/>
<polygon fill="#e06d68" stroke="#e06d68" points="708.064,-129.476 705.323,-118.859 704.937,-125.574 701.811,-121.672 701.811,-121.672 701.811,-121.672 704.937,-125.574 698.299,-124.486 708.064,-129.476 708.064,-129.476"/>
</g>
<!-- Activity -->
<g id="node6" class="node"><title>Activity</title>
<path fill="none" stroke="black" d="M244,-594.5C244,-594.5 464,-594.5 464,-594.5 470,-594.5 476,-600.5 476,-606.5 476,-606.5 476,-718.5 476,-718.5 476,-724.5 470,-730.5 464,-730.5 464,-730.5 244,-730.5 244,-730.5 238,-730.5 232,-724.5 232,-718.5 232,-718.5 232,-606.5 232,-606.5 232,-600.5 238,-594.5 244,-594.5"/>
<text text-anchor="middle" x="354" y="-715.3" font-family="Times,serif" font-size="14.00">Activity</text>
<polyline fill="none" stroke="black" points="232,-707.5 476,-707.5 "/>
<text text-anchor="start" x="240" y="-692.3" font-family="Times,serif" font-size="14.00">id :integer</text>
<text text-anchor="start" x="240" y="-677.3" font-family="Times,serif" font-size="14.00">name :character varying</text>
<text text-anchor="start" x="240" y="-662.3" font-family="Times,serif" font-size="14.00">description :text</text>
<text text-anchor="start" x="240" y="-647.3" font-family="Times,serif" font-size="14.00">enabled :boolean</text>
<text text-anchor="start" x="240" y="-632.3" font-family="Times,serif" font-size="14.00">capacity :integer</text>
<text text-anchor="start" x="240" y="-617.3" font-family="Times,serif" font-size="14.00">created_at :timestamp without time zone</text>
<text text-anchor="start" x="240" y="-602.3" font-family="Times,serif" font-size="14.00">updated_at :timestamp without time zone</text>
</g>
<!-- Activity&#45;&gt;UserActivity -->
<g id="edge2" class="edge"><title>Activity&#45;&gt;UserActivity</title>
<path fill="none" stroke="#28c594" d="M293.749,-587.243C288.295,-577.81 283.513,-567.96 280,-558 248.544,-468.811 249.677,-357.727 254.5,-289.746"/>
<ellipse fill="none" stroke="#28c594" cx="295.978" cy="-590.944" rx="4.00002" ry="4.00002"/>
<polygon fill="#28c594" stroke="#28c594" points="254.511,-289.598 259.755,-279.967 254.889,-284.612 255.268,-279.627 255.268,-279.627 255.268,-279.627 254.889,-284.612 250.781,-279.286 254.511,-289.598 254.511,-289.598"/>
</g>
<!-- User -->
<g id="node7" class="node"><title>User</title>
<path fill="none" stroke="black" d="M301.5,-331.5C301.5,-331.5 590.5,-331.5 590.5,-331.5 596.5,-331.5 602.5,-337.5 602.5,-343.5 602.5,-343.5 602.5,-545.5 602.5,-545.5 602.5,-551.5 596.5,-557.5 590.5,-557.5 590.5,-557.5 301.5,-557.5 301.5,-557.5 295.5,-557.5 289.5,-551.5 289.5,-545.5 289.5,-545.5 289.5,-343.5 289.5,-343.5 289.5,-337.5 295.5,-331.5 301.5,-331.5"/>
<text text-anchor="middle" x="446" y="-542.3" font-family="Times,serif" font-size="14.00">User</text>
<polyline fill="none" stroke="black" points="289.5,-534.5 602.5,-534.5 "/>
<text text-anchor="start" x="297.5" y="-519.3" font-family="Times,serif" font-size="14.00">id :integer</text>
<text text-anchor="start" x="297.5" y="-504.3" font-family="Times,serif" font-size="14.00">email :character varying</text>
<text text-anchor="start" x="297.5" y="-489.3" font-family="Times,serif" font-size="14.00">encrypted_password :character varying</text>
<text text-anchor="start" x="297.5" y="-474.3" font-family="Times,serif" font-size="14.00">reset_password_token :character varying</text>
<text text-anchor="start" x="297.5" y="-459.3" font-family="Times,serif" font-size="14.00">reset_password_sent_at :timestamp without time zone</text>
<text text-anchor="start" x="297.5" y="-444.3" font-family="Times,serif" font-size="14.00">remember_created_at :timestamp without time zone</text>
<text text-anchor="start" x="297.5" y="-429.3" font-family="Times,serif" font-size="14.00">sign_in_count :integer</text>
<text text-anchor="start" x="297.5" y="-414.3" font-family="Times,serif" font-size="14.00">current_sign_in_at :timestamp without time zone</text>
<text text-anchor="start" x="297.5" y="-399.3" font-family="Times,serif" font-size="14.00">last_sign_in_at :timestamp without time zone</text>
<text text-anchor="start" x="297.5" y="-384.3" font-family="Times,serif" font-size="14.00">current_sign_in_ip :inet</text>
<text text-anchor="start" x="297.5" y="-369.3" font-family="Times,serif" font-size="14.00">last_sign_in_ip :inet</text>
<text text-anchor="start" x="297.5" y="-354.3" font-family="Times,serif" font-size="14.00">created_at :timestamp without time zone</text>
<text text-anchor="start" x="297.5" y="-339.3" font-family="Times,serif" font-size="14.00">updated_at :timestamp without time zone</text>
</g>
<!-- Activity&#45;&gt;User -->
<g id="edge3" class="edge"><title>Activity&#45;&gt;User</title>
<path fill="none" stroke="#e2af31" d="M386.618,-584.919C389.079,-579.141 391.596,-573.232 394.137,-567.266"/>
<polygon fill="#e2af31" stroke="#e2af31" points="386.524,-585.14 378.465,-592.577 384.564,-589.74 382.605,-594.34 382.605,-594.34 382.605,-594.34 384.564,-589.74 386.745,-596.104 386.524,-585.14 386.524,-585.14"/>
<polygon fill="#e2af31" stroke="#e2af31" points="394.227,-567.055 402.285,-559.618 396.186,-562.455 398.145,-557.854 398.145,-557.854 398.145,-557.854 396.186,-562.455 394.005,-556.091 394.227,-567.055 394.227,-567.055"/>
</g>
<!-- User&#45;&gt;UserActivity -->
<g id="edge5" class="edge"><title>User&#45;&gt;UserActivity</title>
<path fill="none" stroke="#e43b24" d="M344.542,-325.041C333.368,-311.995 322.37,-299.154 312.208,-287.289"/>
<ellipse fill="none" stroke="#e43b24" cx="347.376" cy="-328.35" rx="4.00002" ry="4.00002"/>
<polygon fill="#e43b24" stroke="#e43b24" points="312.163,-287.236 309.076,-276.714 308.911,-283.439 305.658,-279.641 305.658,-279.641 305.658,-279.641 308.911,-283.439 302.24,-282.569 312.163,-287.236 312.163,-287.236"/>
</g>
<!-- Reservation -->
<g id="node8" class="node"><title>Reservation</title>
<path fill="none" stroke="black" d="M413,-158.5C413,-158.5 633,-158.5 633,-158.5 639,-158.5 645,-164.5 645,-170.5 645,-170.5 645,-282.5 645,-282.5 645,-288.5 639,-294.5 633,-294.5 633,-294.5 413,-294.5 413,-294.5 407,-294.5 401,-288.5 401,-282.5 401,-282.5 401,-170.5 401,-170.5 401,-164.5 407,-158.5 413,-158.5"/>
<text text-anchor="middle" x="523" y="-279.3" font-family="Times,serif" font-size="14.00">Reservation</text>
<polyline fill="none" stroke="black" points="401,-271.5 645,-271.5 "/>
<text text-anchor="start" x="409" y="-256.3" font-family="Times,serif" font-size="14.00">id :integer</text>
<text text-anchor="start" x="409" y="-241.3" font-family="Times,serif" font-size="14.00">init_date :timestamp without time zone</text>
<text text-anchor="start" x="409" y="-226.3" font-family="Times,serif" font-size="14.00">end_date :timestamp without time zone</text>
<text text-anchor="start" x="409" y="-211.3" font-family="Times,serif" font-size="14.00">cost :integer</text>
<text text-anchor="start" x="409" y="-196.3" font-family="Times,serif" font-size="14.00">user_id :integer</text>
<text text-anchor="start" x="409" y="-181.3" font-family="Times,serif" font-size="14.00">created_at :timestamp without time zone</text>
<text text-anchor="start" x="409" y="-166.3" font-family="Times,serif" font-size="14.00">updated_at :timestamp without time zone</text>
</g>
<!-- User&#45;&gt;Reservation -->
<g id="edge4" class="edge"><title>User&#45;&gt;Reservation</title>
<path fill="none" stroke="#4c52f9" d="M488.683,-323.765C491.009,-317.242 493.314,-310.776 495.563,-304.465"/>
<ellipse fill="none" stroke="#4c52f9" cx="487.309" cy="-327.62" rx="4.00001" ry="4.00001"/>
<polygon fill="#4c52f9" stroke="#4c52f9" points="495.691,-304.108 503.287,-296.2 497.37,-299.398 499.049,-294.689 499.049,-294.689 499.049,-294.689 497.37,-299.398 494.81,-293.178 495.691,-304.108 495.691,-304.108"/>
</g>
<!-- Reservation&#45;&gt;Ubication -->
<g id="edge6" class="edge"><title>Reservation&#45;&gt;Ubication</title>
<path fill="none" stroke="#d5e7a1" d="M582.044,-151.808C587.972,-144.409 593.971,-136.921 599.845,-129.59"/>
<ellipse fill="none" stroke="#d5e7a1" cx="579.54" cy="-154.933" rx="4.00002" ry="4.00002"/>
<polygon fill="#d5e7a1" stroke="#d5e7a1" points="599.907,-129.513 609.672,-124.522 603.034,-125.611 606.16,-121.709 606.16,-121.709 606.16,-121.709 603.034,-125.611 602.648,-118.895 599.907,-129.513 599.907,-129.513"/>
</g>
</g>
</svg>
