<?xml version="1.0" encoding="UTF-8" standalone="no"?>
<!DOCTYPE svg PUBLIC "-//W3C//DTD SVG 1.1//EN"
 "http://www.w3.org/Graphics/SVG/1.1/DTD/svg11.dtd">
<!-- Generated by graphviz version 2.38.0 (20140413.2041)
 -->
<!-- Title: models_diagram Pages: 1 -->
<svg width="1060pt" height="934pt"
 viewBox="0.00 0.00 1060.50 934.00" xmlns="http://www.w3.org/2000/svg" xmlns:xlink="http://www.w3.org/1999/xlink">
<g id="graph0" class="graph" transform="scale(1 1) rotate(0) translate(4 930)">
<title>models_diagram</title>
<polygon fill="none" stroke="none" points="-4,4 -4,-930 1056.5,-930 1056.5,4 -4,4"/>
<!-- _diagram_info -->
<g id="node1" class="node"><title>_diagram_info</title>
<text text-anchor="start" x="8" y="-837.1" font-family="Times,serif" font-size="13.00">Models diagram</text>
<text text-anchor="start" x="8" y="-823.1" font-family="Times,serif" font-size="13.00">Date: Mar 20 2017 &#45; 02:12</text>
<text text-anchor="start" x="8" y="-809.1" font-family="Times,serif" font-size="13.00">Migration version: 20170320051021</text>
<text text-anchor="start" x="8" y="-795.1" font-family="Times,serif" font-size="13.00">Generated by RailRoady 1.5.2</text>
<text text-anchor="start" x="8" y="-781.1" font-family="Times,serif" font-size="13.00">http://railroady.prestonlee.com</text>
</g>
<!-- UserActivity -->
<g id="node2" class="node"><title>UserActivity</title>
<path fill="none" stroke="black" d="M543,-30.5C543,-30.5 763,-30.5 763,-30.5 769,-30.5 775,-36.5 775,-42.5 775,-42.5 775,-124.5 775,-124.5 775,-130.5 769,-136.5 763,-136.5 763,-136.5 543,-136.5 543,-136.5 537,-136.5 531,-130.5 531,-124.5 531,-124.5 531,-42.5 531,-42.5 531,-36.5 537,-30.5 543,-30.5"/>
<text text-anchor="middle" x="653" y="-121.3" font-family="Times,serif" font-size="14.00">UserActivity</text>
<polyline fill="none" stroke="black" points="531,-113.5 775,-113.5 "/>
<text text-anchor="start" x="539" y="-98.3" font-family="Times,serif" font-size="14.00">id :integer</text>
<text text-anchor="start" x="539" y="-83.3" font-family="Times,serif" font-size="14.00">user_id :integer</text>
<text text-anchor="start" x="539" y="-68.3" font-family="Times,serif" font-size="14.00">activity_id :integer</text>
<text text-anchor="start" x="539" y="-53.3" font-family="Times,serif" font-size="14.00">created_at :timestamp without time zone</text>
<text text-anchor="start" x="539" y="-38.3" font-family="Times,serif" font-size="14.00">updated_at :timestamp without time zone</text>
</g>
<!-- Ubication -->
<g id="node3" class="node"><title>Ubication</title>
<path fill="none" stroke="black" d="M77,-271C77,-271 297,-271 297,-271 303,-271 309,-277 309,-283 309,-283 309,-380 309,-380 309,-386 303,-392 297,-392 297,-392 77,-392 77,-392 71,-392 65,-386 65,-380 65,-380 65,-283 65,-283 65,-277 71,-271 77,-271"/>
<text text-anchor="middle" x="187" y="-376.8" font-family="Times,serif" font-size="14.00">Ubication</text>
<polyline fill="none" stroke="black" points="65,-369 309,-369 "/>
<text text-anchor="start" x="73" y="-353.8" font-family="Times,serif" font-size="14.00">id :integer</text>
<text text-anchor="start" x="73" y="-338.8" font-family="Times,serif" font-size="14.00">name :character varying</text>
<text text-anchor="start" x="73" y="-323.8" font-family="Times,serif" font-size="14.00">capacity :integer</text>
<text text-anchor="start" x="73" y="-308.8" font-family="Times,serif" font-size="14.00">subsidiary_id :integer</text>
<text text-anchor="start" x="73" y="-293.8" font-family="Times,serif" font-size="14.00">created_at :timestamp without time zone</text>
<text text-anchor="start" x="73" y="-278.8" font-family="Times,serif" font-size="14.00">updated_at :timestamp without time zone</text>
</g>
<!-- Reservation -->
<g id="node10" class="node"><title>Reservation</title>
<path fill="none" stroke="black" d="M227,-0.5C227,-0.5 447,-0.5 447,-0.5 453,-0.5 459,-6.5 459,-12.5 459,-12.5 459,-154.5 459,-154.5 459,-160.5 453,-166.5 447,-166.5 447,-166.5 227,-166.5 227,-166.5 221,-166.5 215,-160.5 215,-154.5 215,-154.5 215,-12.5 215,-12.5 215,-6.5 221,-0.5 227,-0.5"/>
<text text-anchor="middle" x="337" y="-151.3" font-family="Times,serif" font-size="14.00">Reservation</text>
<polyline fill="none" stroke="black" points="215,-143.5 459,-143.5 "/>
<text text-anchor="start" x="223" y="-128.3" font-family="Times,serif" font-size="14.00">id :integer</text>
<text text-anchor="start" x="223" y="-113.3" font-family="Times,serif" font-size="14.00">init_date :timestamp without time zone</text>
<text text-anchor="start" x="223" y="-98.3" font-family="Times,serif" font-size="14.00">end_date :timestamp without time zone</text>
<text text-anchor="start" x="223" y="-83.3" font-family="Times,serif" font-size="14.00">cost :integer</text>
<text text-anchor="start" x="223" y="-68.3" font-family="Times,serif" font-size="14.00">user_id :integer</text>
<text text-anchor="start" x="223" y="-53.3" font-family="Times,serif" font-size="14.00">created_at :timestamp without time zone</text>
<text text-anchor="start" x="223" y="-38.3" font-family="Times,serif" font-size="14.00">updated_at :timestamp without time zone</text>
<text text-anchor="start" x="223" y="-23.3" font-family="Times,serif" font-size="14.00">ubication_id :integer</text>
<text text-anchor="start" x="223" y="-8.3" font-family="Times,serif" font-size="14.00">activity_id :integer</text>
</g>
<!-- Ubication&#45;&gt;Reservation -->
<g id="edge1" class="edge"><title>Ubication&#45;&gt;Reservation</title>
<path fill="none" stroke="#f888c1" d="M227.631,-263.865C244.244,-236.62 263.728,-204.666 281.612,-175.337"/>
<ellipse fill="none" stroke="#f888c1" cx="225.393" cy="-267.535" rx="4.00002" ry="4.00002"/>
<polygon fill="#f888c1" stroke="#f888c1" points="281.651,-175.273 290.699,-169.078 284.254,-171.004 286.857,-166.735 286.857,-166.735 286.857,-166.735 284.254,-171.004 283.015,-164.392 281.651,-175.273 281.651,-175.273"/>
</g>
<!-- ApplicationRecord -->
<g id="node4" class="node"><title>ApplicationRecord</title>
<ellipse fill="none" stroke="black" cx="571" cy="-812.5" rx="77.1866" ry="18"/>
<text text-anchor="middle" x="571" y="-808.8" font-family="Times,serif" font-size="14.00">ApplicationRecord</text>
</g>
<!-- AdminUser -->
<g id="node5" class="node"><title>AdminUser</title>
<path fill="none" stroke="black" d="M678.5,-699.5C678.5,-699.5 967.5,-699.5 967.5,-699.5 973.5,-699.5 979.5,-705.5 979.5,-711.5 979.5,-711.5 979.5,-913.5 979.5,-913.5 979.5,-919.5 973.5,-925.5 967.5,-925.5 967.5,-925.5 678.5,-925.5 678.5,-925.5 672.5,-925.5 666.5,-919.5 666.5,-913.5 666.5,-913.5 666.5,-711.5 666.5,-711.5 666.5,-705.5 672.5,-699.5 678.5,-699.5"/>
<text text-anchor="middle" x="823" y="-910.3" font-family="Times,serif" font-size="14.00">AdminUser</text>
<polyline fill="none" stroke="black" points="666.5,-902.5 979.5,-902.5 "/>
<text text-anchor="start" x="674.5" y="-887.3" font-family="Times,serif" font-size="14.00">id :integer</text>
<text text-anchor="start" x="674.5" y="-872.3" font-family="Times,serif" font-size="14.00">email :character varying</text>
<text text-anchor="start" x="674.5" y="-857.3" font-family="Times,serif" font-size="14.00">encrypted_password :character varying</text>
<text text-anchor="start" x="674.5" y="-842.3" font-family="Times,serif" font-size="14.00">reset_password_token :character varying</text>
<text text-anchor="start" x="674.5" y="-827.3" font-family="Times,serif" font-size="14.00">reset_password_sent_at :timestamp without time zone</text>
<text text-anchor="start" x="674.5" y="-812.3" font-family="Times,serif" font-size="14.00">remember_created_at :timestamp without time zone</text>
<text text-anchor="start" x="674.5" y="-797.3" font-family="Times,serif" font-size="14.00">sign_in_count :integer</text>
<text text-anchor="start" x="674.5" y="-782.3" font-family="Times,serif" font-size="14.00">current_sign_in_at :timestamp without time zone</text>
<text text-anchor="start" x="674.5" y="-767.3" font-family="Times,serif" font-size="14.00">last_sign_in_at :timestamp without time zone</text>
<text text-anchor="start" x="674.5" y="-752.3" font-family="Times,serif" font-size="14.00">current_sign_in_ip :inet</text>
<text text-anchor="start" x="674.5" y="-737.3" font-family="Times,serif" font-size="14.00">last_sign_in_ip :inet</text>
<text text-anchor="start" x="674.5" y="-722.3" font-family="Times,serif" font-size="14.00">created_at :timestamp without time zone</text>
<text text-anchor="start" x="674.5" y="-707.3" font-family="Times,serif" font-size="14.00">updated_at :timestamp without time zone</text>
</g>
<!-- Subsidiary -->
<g id="node6" class="node"><title>Subsidiary</title>
<path fill="none" stroke="black" d="M244,-744.5C244,-744.5 464,-744.5 464,-744.5 470,-744.5 476,-750.5 476,-756.5 476,-756.5 476,-868.5 476,-868.5 476,-874.5 470,-880.5 464,-880.5 464,-880.5 244,-880.5 244,-880.5 238,-880.5 232,-874.5 232,-868.5 232,-868.5 232,-756.5 232,-756.5 232,-750.5 238,-744.5 244,-744.5"/>
<text text-anchor="middle" x="354" y="-865.3" font-family="Times,serif" font-size="14.00">Subsidiary</text>
<polyline fill="none" stroke="black" points="232,-857.5 476,-857.5 "/>
<text text-anchor="start" x="240" y="-842.3" font-family="Times,serif" font-size="14.00">id :integer</text>
<text text-anchor="start" x="240" y="-827.3" font-family="Times,serif" font-size="14.00">name :character varying</text>
<text text-anchor="start" x="240" y="-812.3" font-family="Times,serif" font-size="14.00">address :character varying</text>
<text text-anchor="start" x="240" y="-797.3" font-family="Times,serif" font-size="14.00">phone :character varying</text>
<text text-anchor="start" x="240" y="-782.3" font-family="Times,serif" font-size="14.00">created_at :timestamp without time zone</text>
<text text-anchor="start" x="240" y="-767.3" font-family="Times,serif" font-size="14.00">updated_at :timestamp without time zone</text>
<text text-anchor="start" x="240" y="-752.3" font-family="Times,serif" font-size="14.00">photo :character varying</text>
</g>
<!-- Subsidiary&#45;&gt;Ubication -->
<g id="edge2" class="edge"><title>Subsidiary&#45;&gt;Ubication</title>
<path fill="none" stroke="#a2b7e6" d="M327.965,-736.826C296.011,-645.173 242.254,-490.982 211.174,-401.839"/>
<ellipse fill="none" stroke="#a2b7e6" cx="329.287" cy="-740.616" rx="4.00001" ry="4.00001"/>
<polygon fill="#a2b7e6" stroke="#a2b7e6" points="211.162,-401.802 212.119,-390.878 209.516,-397.081 207.87,-392.359 207.87,-392.359 207.87,-392.359 209.516,-397.081 203.62,-393.841 211.162,-401.802 211.162,-401.802"/>
</g>
<!-- Activity -->
<g id="node7" class="node"><title>Activity</title>
<path fill="none" stroke="black" d="M365,-496.5C365,-496.5 585,-496.5 585,-496.5 591,-496.5 597,-502.5 597,-508.5 597,-508.5 597,-650.5 597,-650.5 597,-656.5 591,-662.5 585,-662.5 585,-662.5 365,-662.5 365,-662.5 359,-662.5 353,-656.5 353,-650.5 353,-650.5 353,-508.5 353,-508.5 353,-502.5 359,-496.5 365,-496.5"/>
<text text-anchor="middle" x="475" y="-647.3" font-family="Times,serif" font-size="14.00">Activity</text>
<polyline fill="none" stroke="black" points="353,-639.5 597,-639.5 "/>
<text text-anchor="start" x="361" y="-624.3" font-family="Times,serif" font-size="14.00">id :integer</text>
<text text-anchor="start" x="361" y="-609.3" font-family="Times,serif" font-size="14.00">name :character varying</text>
<text text-anchor="start" x="361" y="-594.3" font-family="Times,serif" font-size="14.00">description :text</text>
<text text-anchor="start" x="361" y="-579.3" font-family="Times,serif" font-size="14.00">enabled :boolean</text>
<text text-anchor="start" x="361" y="-564.3" font-family="Times,serif" font-size="14.00">capacity :integer</text>
<text text-anchor="start" x="361" y="-549.3" font-family="Times,serif" font-size="14.00">created_at :timestamp without time zone</text>
<text text-anchor="start" x="361" y="-534.3" font-family="Times,serif" font-size="14.00">updated_at :timestamp without time zone</text>
<text text-anchor="start" x="361" y="-519.3" font-family="Times,serif" font-size="14.00">photo :character varying</text>
<text text-anchor="start" x="361" y="-504.3" font-family="Times,serif" font-size="14.00">subsidiary_id :integer</text>
</g>
<!-- Subsidiary&#45;&gt;Activity -->
<g id="edge3" class="edge"><title>Subsidiary&#45;&gt;Activity</title>
<path fill="none" stroke="#6a08b7" d="M392.979,-737.085C403.928,-716.182 415.959,-693.214 427.352,-671.464"/>
<ellipse fill="none" stroke="#6a08b7" cx="391.017" cy="-740.832" rx="4.00002" ry="4.00002"/>
<polygon fill="#6a08b7" stroke="#6a08b7" points="427.38,-671.41 436.007,-664.64 429.7,-666.981 432.021,-662.552 432.021,-662.552 432.021,-662.552 429.7,-666.981 428.034,-660.464 427.38,-671.41 427.38,-671.41"/>
</g>
<!-- Activity&#45;&gt;UserActivity -->
<g id="edge4" class="edge"><title>Activity&#45;&gt;UserActivity</title>
<path fill="none" stroke="#c92daa" d="M604.536,-534.327C637.502,-516.563 668.956,-492.387 688,-460 745.445,-362.305 709.204,-225.049 679.708,-146.397"/>
<ellipse fill="none" stroke="#c92daa" cx="600.58" cy="-536.395" rx="4.00002" ry="4.00002"/>
<polygon fill="#c92daa" stroke="#c92daa" points="679.545,-145.973 680.17,-135.025 677.756,-141.304 675.968,-136.635 675.968,-136.635 675.968,-136.635 677.756,-141.304 671.766,-138.244 679.545,-145.973 679.545,-145.973"/>
</g>
<!-- User -->
<g id="node9" class="node"><title>User</title>
<path fill="none" stroke="black" d="M377.5,-203.5C377.5,-203.5 666.5,-203.5 666.5,-203.5 672.5,-203.5 678.5,-209.5 678.5,-215.5 678.5,-215.5 678.5,-447.5 678.5,-447.5 678.5,-453.5 672.5,-459.5 666.5,-459.5 666.5,-459.5 377.5,-459.5 377.5,-459.5 371.5,-459.5 365.5,-453.5 365.5,-447.5 365.5,-447.5 365.5,-215.5 365.5,-215.5 365.5,-209.5 371.5,-203.5 377.5,-203.5"/>
<text text-anchor="middle" x="522" y="-444.3" font-family="Times,serif" font-size="14.00">User</text>
<polyline fill="none" stroke="black" points="365.5,-436.5 678.5,-436.5 "/>
<text text-anchor="start" x="373.5" y="-421.3" font-family="Times,serif" font-size="14.00">id :integer</text>
<text text-anchor="start" x="373.5" y="-406.3" font-family="Times,serif" font-size="14.00">email :character varying</text>
<text text-anchor="start" x="373.5" y="-391.3" font-family="Times,serif" font-size="14.00">encrypted_password :character varying</text>
<text text-anchor="start" x="373.5" y="-376.3" font-family="Times,serif" font-size="14.00">reset_password_token :character varying</text>
<text text-anchor="start" x="373.5" y="-361.3" font-family="Times,serif" font-size="14.00">reset_password_sent_at :timestamp without time zone</text>
<text text-anchor="start" x="373.5" y="-346.3" font-family="Times,serif" font-size="14.00">remember_created_at :timestamp without time zone</text>
<text text-anchor="start" x="373.5" y="-331.3" font-family="Times,serif" font-size="14.00">sign_in_count :integer</text>
<text text-anchor="start" x="373.5" y="-316.3" font-family="Times,serif" font-size="14.00">current_sign_in_at :timestamp without time zone</text>
<text text-anchor="start" x="373.5" y="-301.3" font-family="Times,serif" font-size="14.00">last_sign_in_at :timestamp without time zone</text>
<text text-anchor="start" x="373.5" y="-286.3" font-family="Times,serif" font-size="14.00">current_sign_in_ip :inet</text>
<text text-anchor="start" x="373.5" y="-271.3" font-family="Times,serif" font-size="14.00">last_sign_in_ip :inet</text>
<text text-anchor="start" x="373.5" y="-256.3" font-family="Times,serif" font-size="14.00">created_at :timestamp without time zone</text>
<text text-anchor="start" x="373.5" y="-241.3" font-family="Times,serif" font-size="14.00">updated_at :timestamp without time zone</text>
<text text-anchor="start" x="373.5" y="-226.3" font-family="Times,serif" font-size="14.00">role :integer</text>
<text text-anchor="start" x="373.5" y="-211.3" font-family="Times,serif" font-size="14.00">name :character varying</text>
</g>
<!-- Activity&#45;&gt;User -->
<g id="edge5" class="edge"><title>Activity&#45;&gt;User</title>
<path fill="none" stroke="#21ed43" d="M492.63,-486.223C493.661,-480.829 494.707,-475.351 495.761,-469.834"/>
<polygon fill="#21ed43" stroke="#21ed43" points="492.592,-486.421 486.296,-495.399 491.654,-491.332 490.716,-496.244 490.716,-496.244 490.716,-496.244 491.654,-491.332 495.136,-497.088 492.592,-486.421 492.592,-486.421"/>
<polygon fill="#21ed43" stroke="#21ed43" points="495.788,-469.694 502.085,-460.716 496.726,-464.782 497.665,-459.871 497.665,-459.871 497.665,-459.871 496.726,-464.782 493.245,-459.027 495.788,-469.694 495.788,-469.694"/>
</g>
<!-- Activity&#45;&gt;Reservation -->
<g id="edge6" class="edge"><title>Activity&#45;&gt;Reservation</title>
<path fill="none" stroke="#b4512c" d="M374.295,-489.716C367.535,-480.291 361.599,-470.347 357,-460 317.033,-370.079 317.197,-255.869 324.09,-177.147"/>
<ellipse fill="none" stroke="#b4512c" cx="376.708" cy="-492.95" rx="4.00002" ry="4.00002"/>
<polygon fill="#b4512c" stroke="#b4512c" points="324.13,-176.72 329.537,-167.18 324.593,-171.742 325.056,-166.763 325.056,-166.763 325.056,-166.763 324.593,-171.742 320.576,-166.346 324.13,-176.72 324.13,-176.72"/>
</g>
<!-- Ability -->
<g id="node8" class="node"><title>Ability</title>
<polygon fill="none" stroke="black" points="997.5,-789.5 997.5,-835.5 1052.5,-835.5 1052.5,-789.5 997.5,-789.5"/>
<text text-anchor="middle" x="1025" y="-820.3" font-family="Times,serif" font-size="14.00">Ability</text>
<polyline fill="none" stroke="black" points="997.5,-812.5 1052.5,-812.5 "/>
<text text-anchor="middle" x="1025" y="-797.3" font-family="Times,serif" font-size="14.00"> </text>
</g>
<!-- User&#45;&gt;UserActivity -->
<g id="edge8" class="edge"><title>User&#45;&gt;UserActivity</title>
<path fill="none" stroke="#b23890" d="M593.62,-196.007C603.013,-178.368 612.237,-161.047 620.51,-145.512"/>
<ellipse fill="none" stroke="#b23890" cx="591.682" cy="-199.646" rx="4.00002" ry="4.00002"/>
<polygon fill="#b23890" stroke="#b23890" points="620.564,-145.41 629.237,-138.698 622.914,-140.997 625.265,-136.583 625.265,-136.583 625.265,-136.583 622.914,-140.997 621.293,-134.468 620.564,-145.41 620.564,-145.41"/>
</g>
<!-- User&#45;&gt;Reservation -->
<g id="edge7" class="edge"><title>User&#45;&gt;Reservation</title>
<path fill="none" stroke="#04d393" d="M421.436,-196.777C415.889,-189.401 410.381,-182.077 404.993,-174.912"/>
<ellipse fill="none" stroke="#04d393" cx="423.844" cy="-199.98" rx="4.00002" ry="4.00002"/>
<polygon fill="#04d393" stroke="#04d393" points="404.737,-174.572 402.323,-163.875 401.732,-170.576 398.727,-166.58 398.727,-166.58 398.727,-166.58 401.732,-170.576 395.13,-169.285 404.737,-174.572 404.737,-174.572"/>
</g>
</g>
</svg>
