<?xml version="1.0" encoding="UTF-8" standalone="no"?>
<!DOCTYPE svg PUBLIC "-//W3C//DTD SVG 1.1//EN"
 "http://www.w3.org/Graphics/SVG/1.1/DTD/svg11.dtd">
<!-- Generated by graphviz version 2.38.0 (20140413.2041)
 -->
<!-- Title: models_diagram Pages: 1 -->
<svg width="822pt" height="230pt"
 viewBox="0.00 0.00 822.50 230.00" xmlns="http://www.w3.org/2000/svg" xmlns:xlink="http://www.w3.org/1999/xlink">
<g id="graph0" class="graph" transform="scale(1 1) rotate(0) translate(4 226)">
<title>models_diagram</title>
<polygon fill="none" stroke="none" points="-4,4 -4,-226 818.5,-226 818.5,4 -4,4"/>
<!-- _diagram_info -->
<g id="node1" class="node"><title>_diagram_info</title>
<text text-anchor="start" x="8" y="-207.6" font-family="Times,serif" font-size="13.00">Models diagram</text>
<text text-anchor="start" x="8" y="-193.6" font-family="Times,serif" font-size="13.00">Date: Mar 18 2017 &#45; 17:30</text>
<text text-anchor="start" x="8" y="-179.6" font-family="Times,serif" font-size="13.00">Migration version: 20170318194017</text>
<text text-anchor="start" x="8" y="-165.6" font-family="Times,serif" font-size="13.00">Generated by RailRoady 1.5.2</text>
<text text-anchor="start" x="8" y="-151.6" font-family="Times,serif" font-size="13.00">http://railroady.prestonlee.com</text>
</g>
<!-- UserActivity -->
<g id="node2" class="node"><title>UserActivity</title>
<ellipse fill="none" stroke="black" cx="217" cy="-18" rx="55.7903" ry="18"/>
<text text-anchor="middle" x="217" y="-14.3" font-family="Times,serif" font-size="14.00">UserActivity</text>
</g>
<!-- Ubication -->
<g id="node3" class="node"><title>Ubication</title>
<ellipse fill="none" stroke="black" cx="400" cy="-90" rx="45.4919" ry="18"/>
<text text-anchor="middle" x="400" y="-86.3" font-family="Times,serif" font-size="14.00">Ubication</text>
</g>
<!-- Reservation -->
<g id="node10" class="node"><title>Reservation</title>
<ellipse fill="none" stroke="black" cx="344" cy="-18" rx="52.7911" ry="18"/>
<text text-anchor="middle" x="344" y="-14.3" font-family="Times,serif" font-size="14.00">Reservation</text>
</g>
<!-- Ubication&#45;&gt;Reservation -->
<g id="edge1" class="edge"><title>Ubication&#45;&gt;Reservation</title>
<path fill="none" stroke="#14352e" d="M381.679,-66.0984C375.93,-58.9131 369.562,-50.9521 363.721,-43.6513"/>
<ellipse fill="none" stroke="#14352e" cx="384.23" cy="-69.2875" rx="4.00002" ry="4.00002"/>
<polygon fill="#14352e" stroke="#14352e" points="363.423,-43.2787 360.69,-32.6588 360.299,-39.3743 357.176,-35.4699 357.176,-35.4699 357.176,-35.4699 360.299,-39.3743 353.662,-38.2811 363.423,-43.2787 363.423,-43.2787"/>
</g>
<!-- ApplicationRecord -->
<g id="node4" class="node"><title>ApplicationRecord</title>
<ellipse fill="none" stroke="black" cx="543" cy="-183" rx="77.1866" ry="18"/>
<text text-anchor="middle" x="543" y="-179.3" font-family="Times,serif" font-size="14.00">ApplicationRecord</text>
</g>
<!-- AdminUser -->
<g id="node5" class="node"><title>AdminUser</title>
<ellipse fill="none" stroke="black" cx="690" cy="-183" rx="51.9908" ry="18"/>
<text text-anchor="middle" x="690" y="-179.3" font-family="Times,serif" font-size="14.00">AdminUser</text>
</g>
<!-- Subsidiary -->
<g id="node6" class="node"><title>Subsidiary</title>
<ellipse fill="none" stroke="black" cx="400" cy="-183" rx="48.1917" ry="18"/>
<text text-anchor="middle" x="400" y="-179.3" font-family="Times,serif" font-size="14.00">Subsidiary</text>
</g>
<!-- Subsidiary&#45;&gt;Ubication -->
<g id="edge2" class="edge"><title>Subsidiary&#45;&gt;Ubication</title>
<path fill="none" stroke="#ea5ddc" d="M400,-156.729C400,-144.725 400,-130.362 400,-118.129"/>
<ellipse fill="none" stroke="#ea5ddc" cx="400" cy="-160.884" rx="4" ry="4"/>
<polygon fill="#ea5ddc" stroke="#ea5ddc" points="400,-118.04 404.5,-108.04 400,-113.04 400,-108.04 400,-108.04 400,-108.04 400,-113.04 395.5,-108.04 400,-118.04 400,-118.04"/>
</g>
<!-- Activity -->
<g id="node7" class="node"><title>Activity</title>
<ellipse fill="none" stroke="black" cx="272" cy="-183" rx="39.7935" ry="18"/>
<text text-anchor="middle" x="272" y="-179.3" font-family="Times,serif" font-size="14.00">Activity</text>
</g>
<!-- Activity&#45;&gt;UserActivity -->
<g id="edge3" class="edge"><title>Activity&#45;&gt;UserActivity</title>
<path fill="none" stroke="#51c5ac" d="M258.508,-158.051C250.988,-143.863 241.964,-125.325 236,-108 229.025,-87.7394 224.108,-63.9674 221.026,-46.0906"/>
<ellipse fill="none" stroke="#51c5ac" cx="260.603" cy="-161.931" rx="4.00002" ry="4.00002"/>
<polygon fill="#51c5ac" stroke="#51c5ac" points="221,-45.9303 223.822,-35.3339 220.191,-40.9961 219.382,-36.062 219.382,-36.062 219.382,-36.062 220.191,-40.9961 214.941,-36.7901 221,-45.9303 221,-45.9303"/>
</g>
<!-- User -->
<g id="node9" class="node"><title>User</title>
<ellipse fill="none" stroke="black" cx="272" cy="-90" rx="27.0966" ry="18"/>
<text text-anchor="middle" x="272" y="-86.3" font-family="Times,serif" font-size="14.00">User</text>
</g>
<!-- Activity&#45;&gt;User -->
<g id="edge4" class="edge"><title>Activity&#45;&gt;User</title>
<path fill="none" stroke="#36e77b" d="M272,-154.549C272,-143.083 272,-129.792 272,-118.339"/>
<polygon fill="#36e77b" stroke="#36e77b" points="272,-154.884 267.5,-164.884 272,-159.884 272,-164.884 272,-164.884 272,-164.884 272,-159.884 276.5,-164.884 272,-154.884 272,-154.884"/>
<polygon fill="#36e77b" stroke="#36e77b" points="272,-118.04 276.5,-108.04 272,-113.04 272,-108.04 272,-108.04 272,-108.04 272,-113.04 267.5,-108.04 272,-118.04 272,-118.04"/>
</g>
<!-- Activity&#45;&gt;Reservation -->
<g id="edge5" class="edge"><title>Activity&#45;&gt;Reservation</title>
<path fill="none" stroke="#0d6b67" d="M284.243,-157.898C291.413,-143.525 300.503,-124.851 308,-108 317.274,-87.1528 326.924,-63.1518 333.896,-45.3312"/>
<ellipse fill="none" stroke="#0d6b67" cx="282.272" cy="-161.826" rx="4.00002" ry="4.00002"/>
<polygon fill="#0d6b67" stroke="#0d6b67" points="333.948,-45.1959 341.765,-37.5053 335.76,-40.5355 337.571,-35.8751 337.571,-35.8751 337.571,-35.8751 335.76,-40.5355 333.377,-34.245 333.948,-45.1959 333.948,-45.1959"/>
</g>
<!-- Ability -->
<g id="node8" class="node"><title>Ability</title>
<polygon fill="none" stroke="black" points="814.5,-201 759.5,-201 759.5,-165 814.5,-165 814.5,-201"/>
<text text-anchor="middle" x="787" y="-179.3" font-family="Times,serif" font-size="14.00">Ability</text>
</g>
<!-- User&#45;&gt;UserActivity -->
<g id="edge7" class="edge"><title>User&#45;&gt;UserActivity</title>
<path fill="none" stroke="#5c561a" d="M255.022,-67.3922C249.119,-59.8791 242.454,-51.3964 236.372,-43.6555"/>
<ellipse fill="none" stroke="#5c561a" cx="257.595" cy="-70.6658" rx="4.00002" ry="4.00002"/>
<polygon fill="#5c561a" stroke="#5c561a" points="236.243,-43.4911 233.603,-32.8476 233.154,-39.5595 230.065,-35.6278 230.065,-35.6278 230.065,-35.6278 233.154,-39.5595 226.526,-38.4081 236.243,-43.4911 236.243,-43.4911"/>
</g>
<!-- User&#45;&gt;Reservation -->
<g id="edge6" class="edge"><title>User&#45;&gt;Reservation</title>
<path fill="none" stroke="#a5dc4a" d="M292.747,-68.8291C301.242,-60.5704 311.127,-50.9602 319.936,-42.3954"/>
<ellipse fill="none" stroke="#a5dc4a" cx="289.786" cy="-71.7076" rx="4.00002" ry="4.00002"/>
<polygon fill="#a5dc4a" stroke="#a5dc4a" points="320.169,-42.169 330.476,-38.4247 323.754,-38.6836 327.339,-35.1982 327.339,-35.1982 327.339,-35.1982 323.754,-38.6836 324.202,-31.9717 320.169,-42.169 320.169,-42.169"/>
</g>
</g>
</svg>
