<?xml version="1.0" encoding="UTF-8" standalone="no"?>
<!DOCTYPE svg PUBLIC "-//W3C//DTD SVG 1.1//EN"
 "http://www.w3.org/Graphics/SVG/1.1/DTD/svg11.dtd">
<!-- Generated by graphviz version 2.38.0 (20140413.2041)
 -->
<!-- Title: models_diagram Pages: 1 -->
<svg width="1449pt" height="701pt"
 viewBox="0.00 0.00 1449.50 701.00" xmlns="http://www.w3.org/2000/svg" xmlns:xlink="http://www.w3.org/1999/xlink">
<g id="graph0" class="graph" transform="scale(1 1) rotate(0) translate(4 697)">
<title>models_diagram</title>
<polygon fill="none" stroke="none" points="-4,4 -4,-697 1445.5,-697 1445.5,4 -4,4"/>
<!-- _diagram_info -->
<g id="node1" class="node"><title>_diagram_info</title>
<text text-anchor="start" x="8" y="-604.1" font-family="Times,serif" font-size="13.00">Models diagram</text>
<text text-anchor="start" x="8" y="-590.1" font-family="Times,serif" font-size="13.00">Date: Mar 17 2017 &#45; 10:32</text>
<text text-anchor="start" x="8" y="-576.1" font-family="Times,serif" font-size="13.00">Migration version: 20170316232028</text>
<text text-anchor="start" x="8" y="-562.1" font-family="Times,serif" font-size="13.00">Generated by RailRoady 1.5.2</text>
<text text-anchor="start" x="8" y="-548.1" font-family="Times,serif" font-size="13.00">http://railroady.prestonlee.com</text>
</g>
<!-- UserActivity -->
<g id="node2" class="node"><title>UserActivity</title>
<path fill="none" stroke="black" d="M243,-23C243,-23 463,-23 463,-23 469,-23 475,-29 475,-35 475,-35 475,-117 475,-117 475,-123 469,-129 463,-129 463,-129 243,-129 243,-129 237,-129 231,-123 231,-117 231,-117 231,-35 231,-35 231,-29 237,-23 243,-23"/>
<text text-anchor="middle" x="353" y="-113.8" font-family="Times,serif" font-size="14.00">UserActivity</text>
<polyline fill="none" stroke="black" points="231,-106 475,-106 "/>
<text text-anchor="start" x="239" y="-90.8" font-family="Times,serif" font-size="14.00">id :integer</text>
<text text-anchor="start" x="239" y="-75.8" font-family="Times,serif" font-size="14.00">user_id :integer</text>
<text text-anchor="start" x="239" y="-60.8" font-family="Times,serif" font-size="14.00">activity_id :integer</text>
<text text-anchor="start" x="239" y="-45.8" font-family="Times,serif" font-size="14.00">created_at :timestamp without time zone</text>
<text text-anchor="start" x="239" y="-30.8" font-family="Times,serif" font-size="14.00">updated_at :timestamp without time zone</text>
</g>
<!-- Ubication -->
<g id="node3" class="node"><title>Ubication</title>
<path fill="none" stroke="black" d="M633,-248.5C633,-248.5 853,-248.5 853,-248.5 859,-248.5 865,-254.5 865,-260.5 865,-260.5 865,-357.5 865,-357.5 865,-363.5 859,-369.5 853,-369.5 853,-369.5 633,-369.5 633,-369.5 627,-369.5 621,-363.5 621,-357.5 621,-357.5 621,-260.5 621,-260.5 621,-254.5 627,-248.5 633,-248.5"/>
<text text-anchor="middle" x="743" y="-354.3" font-family="Times,serif" font-size="14.00">Ubication</text>
<polyline fill="none" stroke="black" points="621,-346.5 865,-346.5 "/>
<text text-anchor="start" x="629" y="-331.3" font-family="Times,serif" font-size="14.00">id :integer</text>
<text text-anchor="start" x="629" y="-316.3" font-family="Times,serif" font-size="14.00">name :character varying</text>
<text text-anchor="start" x="629" y="-301.3" font-family="Times,serif" font-size="14.00">capacity :integer</text>
<text text-anchor="start" x="629" y="-286.3" font-family="Times,serif" font-size="14.00">subsidiary_id :integer</text>
<text text-anchor="start" x="629" y="-271.3" font-family="Times,serif" font-size="14.00">created_at :timestamp without time zone</text>
<text text-anchor="start" x="629" y="-256.3" font-family="Times,serif" font-size="14.00">updated_at :timestamp without time zone</text>
</g>
<!-- Reservation -->
<g id="node10" class="node"><title>Reservation</title>
<path fill="none" stroke="black" d="M569,-0.5C569,-0.5 789,-0.5 789,-0.5 795,-0.5 801,-6.5 801,-12.5 801,-12.5 801,-139.5 801,-139.5 801,-145.5 795,-151.5 789,-151.5 789,-151.5 569,-151.5 569,-151.5 563,-151.5 557,-145.5 557,-139.5 557,-139.5 557,-12.5 557,-12.5 557,-6.5 563,-0.5 569,-0.5"/>
<text text-anchor="middle" x="679" y="-136.3" font-family="Times,serif" font-size="14.00">Reservation</text>
<polyline fill="none" stroke="black" points="557,-128.5 801,-128.5 "/>
<text text-anchor="start" x="565" y="-113.3" font-family="Times,serif" font-size="14.00">id :integer</text>
<text text-anchor="start" x="565" y="-98.3" font-family="Times,serif" font-size="14.00">init_date :timestamp without time zone</text>
<text text-anchor="start" x="565" y="-83.3" font-family="Times,serif" font-size="14.00">end_date :timestamp without time zone</text>
<text text-anchor="start" x="565" y="-68.3" font-family="Times,serif" font-size="14.00">cost :integer</text>
<text text-anchor="start" x="565" y="-53.3" font-family="Times,serif" font-size="14.00">user_id :integer</text>
<text text-anchor="start" x="565" y="-38.3" font-family="Times,serif" font-size="14.00">created_at :timestamp without time zone</text>
<text text-anchor="start" x="565" y="-23.3" font-family="Times,serif" font-size="14.00">updated_at :timestamp without time zone</text>
<text text-anchor="start" x="565" y="-8.3" font-family="Times,serif" font-size="14.00">ubication_id :integer</text>
</g>
<!-- Ubication&#45;&gt;Reservation -->
<g id="edge1" class="edge"><title>Ubication&#45;&gt;Reservation</title>
<path fill="none" stroke="#c28fb3" d="M724.297,-240.496C717.467,-215.841 709.653,-187.637 702.46,-161.675"/>
<ellipse fill="none" stroke="#c28fb3" cx="725.367" cy="-244.357" rx="4.00001" ry="4.00001"/>
<polygon fill="#c28fb3" stroke="#c28fb3" points="702.407,-161.484 704.073,-150.645 701.072,-156.666 699.737,-151.847 699.737,-151.847 699.737,-151.847 701.072,-156.666 695.4,-153.049 702.407,-161.484 702.407,-161.484"/>
</g>
<!-- ApplicationRecord -->
<g id="node4" class="node"><title>ApplicationRecord</title>
<ellipse fill="none" stroke="black" cx="960" cy="-579.5" rx="77.1866" ry="18"/>
<text text-anchor="middle" x="960" y="-575.8" font-family="Times,serif" font-size="14.00">ApplicationRecord</text>
</g>
<!-- AdminUser -->
<g id="node5" class="node"><title>AdminUser</title>
<path fill="none" stroke="black" d="M1067.5,-466.5C1067.5,-466.5 1356.5,-466.5 1356.5,-466.5 1362.5,-466.5 1368.5,-472.5 1368.5,-478.5 1368.5,-478.5 1368.5,-680.5 1368.5,-680.5 1368.5,-686.5 1362.5,-692.5 1356.5,-692.5 1356.5,-692.5 1067.5,-692.5 1067.5,-692.5 1061.5,-692.5 1055.5,-686.5 1055.5,-680.5 1055.5,-680.5 1055.5,-478.5 1055.5,-478.5 1055.5,-472.5 1061.5,-466.5 1067.5,-466.5"/>
<text text-anchor="middle" x="1212" y="-677.3" font-family="Times,serif" font-size="14.00">AdminUser</text>
<polyline fill="none" stroke="black" points="1055.5,-669.5 1368.5,-669.5 "/>
<text text-anchor="start" x="1063.5" y="-654.3" font-family="Times,serif" font-size="14.00">id :integer</text>
<text text-anchor="start" x="1063.5" y="-639.3" font-family="Times,serif" font-size="14.00">email :character varying</text>
<text text-anchor="start" x="1063.5" y="-624.3" font-family="Times,serif" font-size="14.00">encrypted_password :character varying</text>
<text text-anchor="start" x="1063.5" y="-609.3" font-family="Times,serif" font-size="14.00">reset_password_token :character varying</text>
<text text-anchor="start" x="1063.5" y="-594.3" font-family="Times,serif" font-size="14.00">reset_password_sent_at :timestamp without time zone</text>
<text text-anchor="start" x="1063.5" y="-579.3" font-family="Times,serif" font-size="14.00">remember_created_at :timestamp without time zone</text>
<text text-anchor="start" x="1063.5" y="-564.3" font-family="Times,serif" font-size="14.00">sign_in_count :integer</text>
<text text-anchor="start" x="1063.5" y="-549.3" font-family="Times,serif" font-size="14.00">current_sign_in_at :timestamp without time zone</text>
<text text-anchor="start" x="1063.5" y="-534.3" font-family="Times,serif" font-size="14.00">last_sign_in_at :timestamp without time zone</text>
<text text-anchor="start" x="1063.5" y="-519.3" font-family="Times,serif" font-size="14.00">current_sign_in_ip :inet</text>
<text text-anchor="start" x="1063.5" y="-504.3" font-family="Times,serif" font-size="14.00">last_sign_in_ip :inet</text>
<text text-anchor="start" x="1063.5" y="-489.3" font-family="Times,serif" font-size="14.00">created_at :timestamp without time zone</text>
<text text-anchor="start" x="1063.5" y="-474.3" font-family="Times,serif" font-size="14.00">updated_at :timestamp without time zone</text>
</g>
<!-- Subsidiary -->
<g id="node6" class="node"><title>Subsidiary</title>
<path fill="none" stroke="black" d="M633,-519C633,-519 853,-519 853,-519 859,-519 865,-525 865,-531 865,-531 865,-628 865,-628 865,-634 859,-640 853,-640 853,-640 633,-640 633,-640 627,-640 621,-634 621,-628 621,-628 621,-531 621,-531 621,-525 627,-519 633,-519"/>
<text text-anchor="middle" x="743" y="-624.8" font-family="Times,serif" font-size="14.00">Subsidiary</text>
<polyline fill="none" stroke="black" points="621,-617 865,-617 "/>
<text text-anchor="start" x="629" y="-601.8" font-family="Times,serif" font-size="14.00">id :integer</text>
<text text-anchor="start" x="629" y="-586.8" font-family="Times,serif" font-size="14.00">name :character varying</text>
<text text-anchor="start" x="629" y="-571.8" font-family="Times,serif" font-size="14.00">address :character varying</text>
<text text-anchor="start" x="629" y="-556.8" font-family="Times,serif" font-size="14.00">phone :character varying</text>
<text text-anchor="start" x="629" y="-541.8" font-family="Times,serif" font-size="14.00">created_at :timestamp without time zone</text>
<text text-anchor="start" x="629" y="-526.8" font-family="Times,serif" font-size="14.00">updated_at :timestamp without time zone</text>
</g>
<!-- Subsidiary&#45;&gt;Ubication -->
<g id="edge2" class="edge"><title>Subsidiary&#45;&gt;Ubication</title>
<path fill="none" stroke="#ba087e" d="M743,-510.689C743,-470.717 743,-420.239 743,-379.908"/>
<ellipse fill="none" stroke="#ba087e" cx="743" cy="-514.911" rx="4" ry="4"/>
<polygon fill="#ba087e" stroke="#ba087e" points="743,-379.886 747.5,-369.886 743,-374.886 743,-369.886 743,-369.886 743,-369.886 743,-374.886 738.5,-369.886 743,-379.886 743,-379.886"/>
</g>
<!-- Activity -->
<g id="node7" class="node"><title>Activity</title>
<path fill="none" stroke="black" d="M244,-511.5C244,-511.5 464,-511.5 464,-511.5 470,-511.5 476,-517.5 476,-523.5 476,-523.5 476,-635.5 476,-635.5 476,-641.5 470,-647.5 464,-647.5 464,-647.5 244,-647.5 244,-647.5 238,-647.5 232,-641.5 232,-635.5 232,-635.5 232,-523.5 232,-523.5 232,-517.5 238,-511.5 244,-511.5"/>
<text text-anchor="middle" x="354" y="-632.3" font-family="Times,serif" font-size="14.00">Activity</text>
<polyline fill="none" stroke="black" points="232,-624.5 476,-624.5 "/>
<text text-anchor="start" x="240" y="-609.3" font-family="Times,serif" font-size="14.00">id :integer</text>
<text text-anchor="start" x="240" y="-594.3" font-family="Times,serif" font-size="14.00">name :character varying</text>
<text text-anchor="start" x="240" y="-579.3" font-family="Times,serif" font-size="14.00">description :text</text>
<text text-anchor="start" x="240" y="-564.3" font-family="Times,serif" font-size="14.00">enabled :boolean</text>
<text text-anchor="start" x="240" y="-549.3" font-family="Times,serif" font-size="14.00">capacity :integer</text>
<text text-anchor="start" x="240" y="-534.3" font-family="Times,serif" font-size="14.00">created_at :timestamp without time zone</text>
<text text-anchor="start" x="240" y="-519.3" font-family="Times,serif" font-size="14.00">updated_at :timestamp without time zone</text>
</g>
<!-- Activity&#45;&gt;UserActivity -->
<g id="edge3" class="edge"><title>Activity&#45;&gt;UserActivity</title>
<path fill="none" stroke="#c3262f" d="M309.199,-504.103C297.672,-481.148 286.87,-455.249 281,-430 256.643,-325.239 250.48,-291.135 281,-188 286.17,-170.531 295.047,-153.232 304.838,-137.674"/>
<ellipse fill="none" stroke="#c3262f" cx="311.138" cy="-507.887" rx="4.00002" ry="4.00002"/>
<polygon fill="#c3262f" stroke="#c3262f" points="304.89,-137.595 314.123,-131.679 307.622,-133.408 310.354,-129.22 310.354,-129.22 310.354,-129.22 307.622,-133.408 306.585,-126.761 304.89,-137.595 304.89,-137.595"/>
</g>
<!-- User -->
<g id="node9" class="node"><title>User</title>
<path fill="none" stroke="black" d="M301.5,-188.5C301.5,-188.5 590.5,-188.5 590.5,-188.5 596.5,-188.5 602.5,-194.5 602.5,-200.5 602.5,-200.5 602.5,-417.5 602.5,-417.5 602.5,-423.5 596.5,-429.5 590.5,-429.5 590.5,-429.5 301.5,-429.5 301.5,-429.5 295.5,-429.5 289.5,-423.5 289.5,-417.5 289.5,-417.5 289.5,-200.5 289.5,-200.5 289.5,-194.5 295.5,-188.5 301.5,-188.5"/>
<text text-anchor="middle" x="446" y="-414.3" font-family="Times,serif" font-size="14.00">User</text>
<polyline fill="none" stroke="black" points="289.5,-406.5 602.5,-406.5 "/>
<text text-anchor="start" x="297.5" y="-391.3" font-family="Times,serif" font-size="14.00">id :integer</text>
<text text-anchor="start" x="297.5" y="-376.3" font-family="Times,serif" font-size="14.00">email :character varying</text>
<text text-anchor="start" x="297.5" y="-361.3" font-family="Times,serif" font-size="14.00">encrypted_password :character varying</text>
<text text-anchor="start" x="297.5" y="-346.3" font-family="Times,serif" font-size="14.00">reset_password_token :character varying</text>
<text text-anchor="start" x="297.5" y="-331.3" font-family="Times,serif" font-size="14.00">reset_password_sent_at :timestamp without time zone</text>
<text text-anchor="start" x="297.5" y="-316.3" font-family="Times,serif" font-size="14.00">remember_created_at :timestamp without time zone</text>
<text text-anchor="start" x="297.5" y="-301.3" font-family="Times,serif" font-size="14.00">sign_in_count :integer</text>
<text text-anchor="start" x="297.5" y="-286.3" font-family="Times,serif" font-size="14.00">current_sign_in_at :timestamp without time zone</text>
<text text-anchor="start" x="297.5" y="-271.3" font-family="Times,serif" font-size="14.00">last_sign_in_at :timestamp without time zone</text>
<text text-anchor="start" x="297.5" y="-256.3" font-family="Times,serif" font-size="14.00">current_sign_in_ip :inet</text>
<text text-anchor="start" x="297.5" y="-241.3" font-family="Times,serif" font-size="14.00">last_sign_in_ip :inet</text>
<text text-anchor="start" x="297.5" y="-226.3" font-family="Times,serif" font-size="14.00">created_at :timestamp without time zone</text>
<text text-anchor="start" x="297.5" y="-211.3" font-family="Times,serif" font-size="14.00">updated_at :timestamp without time zone</text>
<text text-anchor="start" x="297.5" y="-196.3" font-family="Times,serif" font-size="14.00">role :integer</text>
</g>
<!-- Activity&#45;&gt;User -->
<g id="edge4" class="edge"><title>Activity&#45;&gt;User</title>
<path fill="none" stroke="#a1858e" d="M380.224,-501.965C386.943,-482.357 394.357,-460.72 401.712,-439.254"/>
<polygon fill="#a1858e" stroke="#a1858e" points="380.22,-501.979 372.721,-509.98 378.599,-506.709 376.978,-511.439 376.978,-511.439 376.978,-511.439 378.599,-506.709 381.235,-512.897 380.22,-501.979 380.22,-501.979"/>
<polygon fill="#a1858e" stroke="#a1858e" points="401.73,-439.202 409.228,-431.201 403.35,-434.472 404.971,-429.742 404.971,-429.742 404.971,-429.742 403.35,-434.472 400.714,-428.283 401.73,-439.202 401.73,-439.202"/>
</g>
<!-- Ability -->
<g id="node8" class="node"><title>Ability</title>
<polygon fill="none" stroke="black" points="1386.5,-556.5 1386.5,-602.5 1441.5,-602.5 1441.5,-556.5 1386.5,-556.5"/>
<text text-anchor="middle" x="1414" y="-587.3" font-family="Times,serif" font-size="14.00">Ability</text>
<polyline fill="none" stroke="black" points="1386.5,-579.5 1441.5,-579.5 "/>
<text text-anchor="middle" x="1414" y="-564.3" font-family="Times,serif" font-size="14.00"> </text>
</g>
<!-- User&#45;&gt;UserActivity -->
<g id="edge6" class="edge"><title>User&#45;&gt;UserActivity</title>
<path fill="none" stroke="#18e4c6" d="M394.73,-180.651C388.856,-166.062 383.085,-151.727 377.797,-138.592"/>
<ellipse fill="none" stroke="#18e4c6" cx="396.372" cy="-184.73" rx="4.00001" ry="4.00001"/>
<polygon fill="#18e4c6" stroke="#18e4c6" points="377.772,-138.529 378.211,-127.572 375.904,-133.891 374.037,-129.253 374.037,-129.253 374.037,-129.253 375.904,-133.891 369.862,-130.933 377.772,-138.529 377.772,-138.529"/>
</g>
<!-- User&#45;&gt;Reservation -->
<g id="edge5" class="edge"><title>User&#45;&gt;Reservation</title>
<path fill="none" stroke="#32542f" d="M572.522,-182.564C580.677,-174.479 588.766,-166.46 596.628,-158.665"/>
<ellipse fill="none" stroke="#32542f" cx="569.436" cy="-185.624" rx="4.00002" ry="4.00002"/>
<polygon fill="#32542f" stroke="#32542f" points="596.677,-158.616 606.947,-154.771 600.228,-155.096 603.779,-151.575 603.779,-151.575 603.779,-151.575 600.228,-155.096 600.611,-148.38 596.677,-158.616 596.677,-158.616"/>
</g>
</g>
</svg>
