<?xml version="1.0" encoding="UTF-8" standalone="no"?>
<!DOCTYPE svg PUBLIC "-//W3C//DTD SVG 1.1//EN"
 "http://www.w3.org/Graphics/SVG/1.1/DTD/svg11.dtd">
<!-- Generated by graphviz version 2.38.0 (20140413.2041)
 -->
<!-- Title: models_diagram Pages: 1 -->
<svg width="702pt" height="302pt"
 viewBox="0.00 0.00 702.50 302.00" xmlns="http://www.w3.org/2000/svg" xmlns:xlink="http://www.w3.org/1999/xlink">
<g id="graph0" class="graph" transform="scale(1 1) rotate(0) translate(4 298)">
<title>models_diagram</title>
<polygon fill="none" stroke="none" points="-4,4 -4,-298 698.5,-298 698.5,4 -4,4"/>
<!-- _diagram_info -->
<g id="node1" class="node"><title>_diagram_info</title>
<text text-anchor="start" x="8" y="-279.6" font-family="Times,serif" font-size="13.00">Models diagram</text>
<text text-anchor="start" x="8" y="-265.6" font-family="Times,serif" font-size="13.00">Date: Mar 20 2017 &#45; 02:12</text>
<text text-anchor="start" x="8" y="-251.6" font-family="Times,serif" font-size="13.00">Migration version: 20170320051021</text>
<text text-anchor="start" x="8" y="-237.6" font-family="Times,serif" font-size="13.00">Generated by RailRoady 1.5.2</text>
<text text-anchor="start" x="8" y="-223.6" font-family="Times,serif" font-size="13.00">http://railroady.prestonlee.com</text>
</g>
<!-- UserActivity -->
<g id="node2" class="node"><title>UserActivity</title>
<ellipse fill="none" stroke="black" cx="398" cy="-18" rx="55.7903" ry="18"/>
<text text-anchor="middle" x="398" y="-14.3" font-family="Times,serif" font-size="14.00">UserActivity</text>
</g>
<!-- Ubication -->
<g id="node3" class="node"><title>Ubication</title>
<ellipse fill="none" stroke="black" cx="215" cy="-90" rx="45.4919" ry="18"/>
<text text-anchor="middle" x="215" y="-86.3" font-family="Times,serif" font-size="14.00">Ubication</text>
</g>
<!-- Reservation -->
<g id="node10" class="node"><title>Reservation</title>
<ellipse fill="none" stroke="black" cx="271" cy="-18" rx="52.7911" ry="18"/>
<text text-anchor="middle" x="271" y="-14.3" font-family="Times,serif" font-size="14.00">Reservation</text>
</g>
<!-- Ubication&#45;&gt;Reservation -->
<g id="edge1" class="edge"><title>Ubication&#45;&gt;Reservation</title>
<path fill="none" stroke="#28ec9f" d="M233.321,-66.0984C239.07,-58.9131 245.438,-50.9521 251.279,-43.6513"/>
<ellipse fill="none" stroke="#28ec9f" cx="230.77" cy="-69.2875" rx="4.00002" ry="4.00002"/>
<polygon fill="#28ec9f" stroke="#28ec9f" points="251.577,-43.2787 261.338,-38.2811 254.701,-39.3743 257.824,-35.4699 257.824,-35.4699 257.824,-35.4699 254.701,-39.3743 254.31,-32.6588 251.577,-43.2787 251.577,-43.2787"/>
</g>
<!-- ApplicationRecord -->
<g id="node4" class="node"><title>ApplicationRecord</title>
<ellipse fill="none" stroke="black" cx="423" cy="-255" rx="77.1866" ry="18"/>
<text text-anchor="middle" x="423" y="-251.3" font-family="Times,serif" font-size="14.00">ApplicationRecord</text>
</g>
<!-- AdminUser -->
<g id="node5" class="node"><title>AdminUser</title>
<ellipse fill="none" stroke="black" cx="570" cy="-255" rx="51.9908" ry="18"/>
<text text-anchor="middle" x="570" y="-251.3" font-family="Times,serif" font-size="14.00">AdminUser</text>
</g>
<!-- Subsidiary -->
<g id="node6" class="node"><title>Subsidiary</title>
<ellipse fill="none" stroke="black" cx="280" cy="-255" rx="48.1917" ry="18"/>
<text text-anchor="middle" x="280" y="-251.3" font-family="Times,serif" font-size="14.00">Subsidiary</text>
</g>
<!-- Subsidiary&#45;&gt;Ubication -->
<g id="edge2" class="edge"><title>Subsidiary&#45;&gt;Ubication</title>
<path fill="none" stroke="#4be782" d="M270.294,-229.66C258.269,-199.507 237.861,-148.329 225.487,-117.298"/>
<ellipse fill="none" stroke="#4be782" cx="271.807" cy="-233.455" rx="4.00001" ry="4.00001"/>
<polygon fill="#4be782" stroke="#4be782" points="225.476,-117.271 225.952,-106.316 223.624,-112.627 221.772,-107.983 221.772,-107.983 221.772,-107.983 223.624,-112.627 217.592,-109.649 225.476,-117.271 225.476,-117.271"/>
</g>
<!-- Activity -->
<g id="node7" class="node"><title>Activity</title>
<ellipse fill="none" stroke="black" cx="315" cy="-162" rx="39.7935" ry="18"/>
<text text-anchor="middle" x="315" y="-158.3" font-family="Times,serif" font-size="14.00">Activity</text>
</g>
<!-- Subsidiary&#45;&gt;Activity -->
<g id="edge3" class="edge"><title>Subsidiary&#45;&gt;Activity</title>
<path fill="none" stroke="#1c05f2" d="M289.554,-229.159C294.286,-216.858 300,-201.999 304.814,-189.482"/>
<ellipse fill="none" stroke="#1c05f2" cx="288.019" cy="-233.15" rx="4.00001" ry="4.00001"/>
<polygon fill="#1c05f2" stroke="#1c05f2" points="304.856,-189.373 312.646,-181.655 306.651,-184.706 308.446,-180.04 308.446,-180.04 308.446,-180.04 306.651,-184.706 304.246,-178.424 304.856,-189.373 304.856,-189.373"/>
</g>
<!-- Activity&#45;&gt;UserActivity -->
<g id="edge4" class="edge"><title>Activity&#45;&gt;UserActivity</title>
<path fill="none" stroke="#856115" d="M344.949,-142.727C357.279,-133.737 370.611,-121.846 379,-108 390.293,-89.3618 394.932,-64.9717 396.81,-46.4382"/>
<ellipse fill="none" stroke="#856115" cx="341.519" cy="-145.125" rx="4.00002" ry="4.00002"/>
<polygon fill="#856115" stroke="#856115" points="396.824,-46.2584 402.111,-36.6512 397.225,-41.2745 397.625,-36.2906 397.625,-36.2906 397.625,-36.2906 397.225,-41.2745 393.14,-35.93 396.824,-46.2584 396.824,-46.2584"/>
</g>
<!-- User -->
<g id="node9" class="node"><title>User</title>
<ellipse fill="none" stroke="black" cx="343" cy="-90" rx="27.0966" ry="18"/>
<text text-anchor="middle" x="343" y="-86.3" font-family="Times,serif" font-size="14.00">User</text>
</g>
<!-- Activity&#45;&gt;User -->
<g id="edge5" class="edge"><title>Activity&#45;&gt;User</title>
<path fill="none" stroke="#d6f064" d="M325.514,-134.714C327.77,-129.076 330.153,-123.116 332.411,-117.472"/>
<polygon fill="#d6f064" stroke="#d6f064" points="325.492,-134.77 317.6,-142.384 323.635,-139.413 321.778,-144.055 321.778,-144.055 321.778,-144.055 323.635,-139.413 325.956,-145.726 325.492,-134.77 325.492,-134.77"/>
<polygon fill="#d6f064" stroke="#d6f064" points="332.57,-117.074 340.463,-109.46 334.427,-112.431 336.284,-107.789 336.284,-107.789 336.284,-107.789 334.427,-112.431 332.106,-106.118 332.57,-117.074 332.57,-117.074"/>
</g>
<!-- Activity&#45;&gt;Reservation -->
<g id="edge6" class="edge"><title>Activity&#45;&gt;Reservation</title>
<path fill="none" stroke="#b9a1e2" d="M307.326,-136.233C299.496,-110.964 287.383,-71.8724 279.325,-45.8685"/>
<ellipse fill="none" stroke="#b9a1e2" cx="308.596" cy="-140.332" rx="4.00001" ry="4.00001"/>
<polygon fill="#b9a1e2" stroke="#b9a1e2" points="279.31,-45.8198 280.649,-34.9359 277.831,-41.0438 276.351,-36.2678 276.351,-36.2678 276.351,-36.2678 277.831,-41.0438 272.052,-37.5997 279.31,-45.8198 279.31,-45.8198"/>
</g>
<!-- Ability -->
<g id="node8" class="node"><title>Ability</title>
<polygon fill="none" stroke="black" points="694.5,-273 639.5,-273 639.5,-237 694.5,-237 694.5,-273"/>
<text text-anchor="middle" x="667" y="-251.3" font-family="Times,serif" font-size="14.00">Ability</text>
</g>
<!-- User&#45;&gt;UserActivity -->
<g id="edge8" class="edge"><title>User&#45;&gt;UserActivity</title>
<path fill="none" stroke="#919654" d="M359.978,-67.3922C365.881,-59.8791 372.546,-51.3964 378.628,-43.6555"/>
<ellipse fill="none" stroke="#919654" cx="357.405" cy="-70.6658" rx="4.00002" ry="4.00002"/>
<polygon fill="#919654" stroke="#919654" points="378.757,-43.4911 388.474,-38.4081 381.846,-39.5595 384.935,-35.6278 384.935,-35.6278 384.935,-35.6278 381.846,-39.5595 381.397,-32.8476 378.757,-43.4911 378.757,-43.4911"/>
</g>
<!-- User&#45;&gt;Reservation -->
<g id="edge7" class="edge"><title>User&#45;&gt;Reservation</title>
<path fill="none" stroke="#c5cec8" d="M322.253,-68.8291C313.758,-60.5704 303.873,-50.9602 295.064,-42.3954"/>
<ellipse fill="none" stroke="#c5cec8" cx="325.214" cy="-71.7076" rx="4.00002" ry="4.00002"/>
<polygon fill="#c5cec8" stroke="#c5cec8" points="294.831,-42.169 290.798,-31.9717 291.246,-38.6836 287.661,-35.1982 287.661,-35.1982 287.661,-35.1982 291.246,-38.6836 284.524,-38.4247 294.831,-42.169 294.831,-42.169"/>
</g>
</g>
</svg>
