<?xml version="1.0" encoding="UTF-8" standalone="no"?>
<!DOCTYPE svg PUBLIC "-//W3C//DTD SVG 1.1//EN"
 "http://www.w3.org/Graphics/SVG/1.1/DTD/svg11.dtd">
<!-- Generated by graphviz version 2.38.0 (20140413.2041)
 -->
<!-- Title: models_diagram Pages: 1 -->
<svg width="1395pt" height="731pt"
 viewBox="0.00 0.00 1395.50 731.00" xmlns="http://www.w3.org/2000/svg" xmlns:xlink="http://www.w3.org/1999/xlink">
<g id="graph0" class="graph" transform="scale(1 1) rotate(0) translate(4 727)">
<title>models_diagram</title>
<polygon fill="none" stroke="none" points="-4,4 -4,-727 1391.5,-727 1391.5,4 -4,4"/>
<!-- _diagram_info -->
<g id="node1" class="node"><title>_diagram_info</title>
<text text-anchor="start" x="8" y="-634.1" font-family="Times,serif" font-size="13.00">Models diagram</text>
<text text-anchor="start" x="8" y="-620.1" font-family="Times,serif" font-size="13.00">Date: Mar 18 2017 &#45; 17:30</text>
<text text-anchor="start" x="8" y="-606.1" font-family="Times,serif" font-size="13.00">Migration version: 20170318194017</text>
<text text-anchor="start" x="8" y="-592.1" font-family="Times,serif" font-size="13.00">Generated by RailRoady 1.5.2</text>
<text text-anchor="start" x="8" y="-578.1" font-family="Times,serif" font-size="13.00">http://railroady.prestonlee.com</text>
</g>
<!-- UserActivity -->
<g id="node2" class="node"><title>UserActivity</title>
<path fill="none" stroke="black" d="M113,-30.5C113,-30.5 333,-30.5 333,-30.5 339,-30.5 345,-36.5 345,-42.5 345,-42.5 345,-124.5 345,-124.5 345,-130.5 339,-136.5 333,-136.5 333,-136.5 113,-136.5 113,-136.5 107,-136.5 101,-130.5 101,-124.5 101,-124.5 101,-42.5 101,-42.5 101,-36.5 107,-30.5 113,-30.5"/>
<text text-anchor="middle" x="223" y="-121.3" font-family="Times,serif" font-size="14.00">UserActivity</text>
<polyline fill="none" stroke="black" points="101,-113.5 345,-113.5 "/>
<text text-anchor="start" x="109" y="-98.3" font-family="Times,serif" font-size="14.00">id :integer</text>
<text text-anchor="start" x="109" y="-83.3" font-family="Times,serif" font-size="14.00">user_id :integer</text>
<text text-anchor="start" x="109" y="-68.3" font-family="Times,serif" font-size="14.00">activity_id :integer</text>
<text text-anchor="start" x="109" y="-53.3" font-family="Times,serif" font-size="14.00">created_at :timestamp without time zone</text>
<text text-anchor="start" x="109" y="-38.3" font-family="Times,serif" font-size="14.00">updated_at :timestamp without time zone</text>
</g>
<!-- Ubication -->
<g id="node3" class="node"><title>Ubication</title>
<path fill="none" stroke="black" d="M579,-271C579,-271 799,-271 799,-271 805,-271 811,-277 811,-283 811,-283 811,-380 811,-380 811,-386 805,-392 799,-392 799,-392 579,-392 579,-392 573,-392 567,-386 567,-380 567,-380 567,-283 567,-283 567,-277 573,-271 579,-271"/>
<text text-anchor="middle" x="689" y="-376.8" font-family="Times,serif" font-size="14.00">Ubication</text>
<polyline fill="none" stroke="black" points="567,-369 811,-369 "/>
<text text-anchor="start" x="575" y="-353.8" font-family="Times,serif" font-size="14.00">id :integer</text>
<text text-anchor="start" x="575" y="-338.8" font-family="Times,serif" font-size="14.00">name :character varying</text>
<text text-anchor="start" x="575" y="-323.8" font-family="Times,serif" font-size="14.00">capacity :integer</text>
<text text-anchor="start" x="575" y="-308.8" font-family="Times,serif" font-size="14.00">subsidiary_id :integer</text>
<text text-anchor="start" x="575" y="-293.8" font-family="Times,serif" font-size="14.00">created_at :timestamp without time zone</text>
<text text-anchor="start" x="575" y="-278.8" font-family="Times,serif" font-size="14.00">updated_at :timestamp without time zone</text>
</g>
<!-- Reservation -->
<g id="node10" class="node"><title>Reservation</title>
<path fill="none" stroke="black" d="M429,-0.5C429,-0.5 649,-0.5 649,-0.5 655,-0.5 661,-6.5 661,-12.5 661,-12.5 661,-154.5 661,-154.5 661,-160.5 655,-166.5 649,-166.5 649,-166.5 429,-166.5 429,-166.5 423,-166.5 417,-160.5 417,-154.5 417,-154.5 417,-12.5 417,-12.5 417,-6.5 423,-0.5 429,-0.5"/>
<text text-anchor="middle" x="539" y="-151.3" font-family="Times,serif" font-size="14.00">Reservation</text>
<polyline fill="none" stroke="black" points="417,-143.5 661,-143.5 "/>
<text text-anchor="start" x="425" y="-128.3" font-family="Times,serif" font-size="14.00">id :integer</text>
<text text-anchor="start" x="425" y="-113.3" font-family="Times,serif" font-size="14.00">init_date :timestamp without time zone</text>
<text text-anchor="start" x="425" y="-98.3" font-family="Times,serif" font-size="14.00">end_date :timestamp without time zone</text>
<text text-anchor="start" x="425" y="-83.3" font-family="Times,serif" font-size="14.00">cost :integer</text>
<text text-anchor="start" x="425" y="-68.3" font-family="Times,serif" font-size="14.00">user_id :integer</text>
<text text-anchor="start" x="425" y="-53.3" font-family="Times,serif" font-size="14.00">created_at :timestamp without time zone</text>
<text text-anchor="start" x="425" y="-38.3" font-family="Times,serif" font-size="14.00">updated_at :timestamp without time zone</text>
<text text-anchor="start" x="425" y="-23.3" font-family="Times,serif" font-size="14.00">ubication_id :integer</text>
<text text-anchor="start" x="425" y="-8.3" font-family="Times,serif" font-size="14.00">activity_id :integer</text>
</g>
<!-- Ubication&#45;&gt;Reservation -->
<g id="edge1" class="edge"><title>Ubication&#45;&gt;Reservation</title>
<path fill="none" stroke="#d59a2a" d="M648.369,-263.865C631.756,-236.62 612.272,-204.666 594.388,-175.337"/>
<ellipse fill="none" stroke="#d59a2a" cx="650.607" cy="-267.535" rx="4.00002" ry="4.00002"/>
<polygon fill="#d59a2a" stroke="#d59a2a" points="594.349,-175.273 592.985,-164.392 591.746,-171.004 589.143,-166.735 589.143,-166.735 589.143,-166.735 591.746,-171.004 585.301,-169.078 594.349,-175.273 594.349,-175.273"/>
</g>
<!-- ApplicationRecord -->
<g id="node4" class="node"><title>ApplicationRecord</title>
<ellipse fill="none" stroke="black" cx="906" cy="-609.5" rx="77.1866" ry="18"/>
<text text-anchor="middle" x="906" y="-605.8" font-family="Times,serif" font-size="14.00">ApplicationRecord</text>
</g>
<!-- AdminUser -->
<g id="node5" class="node"><title>AdminUser</title>
<path fill="none" stroke="black" d="M1013.5,-496.5C1013.5,-496.5 1302.5,-496.5 1302.5,-496.5 1308.5,-496.5 1314.5,-502.5 1314.5,-508.5 1314.5,-508.5 1314.5,-710.5 1314.5,-710.5 1314.5,-716.5 1308.5,-722.5 1302.5,-722.5 1302.5,-722.5 1013.5,-722.5 1013.5,-722.5 1007.5,-722.5 1001.5,-716.5 1001.5,-710.5 1001.5,-710.5 1001.5,-508.5 1001.5,-508.5 1001.5,-502.5 1007.5,-496.5 1013.5,-496.5"/>
<text text-anchor="middle" x="1158" y="-707.3" font-family="Times,serif" font-size="14.00">AdminUser</text>
<polyline fill="none" stroke="black" points="1001.5,-699.5 1314.5,-699.5 "/>
<text text-anchor="start" x="1009.5" y="-684.3" font-family="Times,serif" font-size="14.00">id :integer</text>
<text text-anchor="start" x="1009.5" y="-669.3" font-family="Times,serif" font-size="14.00">email :character varying</text>
<text text-anchor="start" x="1009.5" y="-654.3" font-family="Times,serif" font-size="14.00">encrypted_password :character varying</text>
<text text-anchor="start" x="1009.5" y="-639.3" font-family="Times,serif" font-size="14.00">reset_password_token :character varying</text>
<text text-anchor="start" x="1009.5" y="-624.3" font-family="Times,serif" font-size="14.00">reset_password_sent_at :timestamp without time zone</text>
<text text-anchor="start" x="1009.5" y="-609.3" font-family="Times,serif" font-size="14.00">remember_created_at :timestamp without time zone</text>
<text text-anchor="start" x="1009.5" y="-594.3" font-family="Times,serif" font-size="14.00">sign_in_count :integer</text>
<text text-anchor="start" x="1009.5" y="-579.3" font-family="Times,serif" font-size="14.00">current_sign_in_at :timestamp without time zone</text>
<text text-anchor="start" x="1009.5" y="-564.3" font-family="Times,serif" font-size="14.00">last_sign_in_at :timestamp without time zone</text>
<text text-anchor="start" x="1009.5" y="-549.3" font-family="Times,serif" font-size="14.00">current_sign_in_ip :inet</text>
<text text-anchor="start" x="1009.5" y="-534.3" font-family="Times,serif" font-size="14.00">last_sign_in_ip :inet</text>
<text text-anchor="start" x="1009.5" y="-519.3" font-family="Times,serif" font-size="14.00">created_at :timestamp without time zone</text>
<text text-anchor="start" x="1009.5" y="-504.3" font-family="Times,serif" font-size="14.00">updated_at :timestamp without time zone</text>
</g>
<!-- Subsidiary -->
<g id="node6" class="node"><title>Subsidiary</title>
<path fill="none" stroke="black" d="M579,-549C579,-549 799,-549 799,-549 805,-549 811,-555 811,-561 811,-561 811,-658 811,-658 811,-664 805,-670 799,-670 799,-670 579,-670 579,-670 573,-670 567,-664 567,-658 567,-658 567,-561 567,-561 567,-555 573,-549 579,-549"/>
<text text-anchor="middle" x="689" y="-654.8" font-family="Times,serif" font-size="14.00">Subsidiary</text>
<polyline fill="none" stroke="black" points="567,-647 811,-647 "/>
<text text-anchor="start" x="575" y="-631.8" font-family="Times,serif" font-size="14.00">id :integer</text>
<text text-anchor="start" x="575" y="-616.8" font-family="Times,serif" font-size="14.00">name :character varying</text>
<text text-anchor="start" x="575" y="-601.8" font-family="Times,serif" font-size="14.00">address :character varying</text>
<text text-anchor="start" x="575" y="-586.8" font-family="Times,serif" font-size="14.00">phone :character varying</text>
<text text-anchor="start" x="575" y="-571.8" font-family="Times,serif" font-size="14.00">created_at :timestamp without time zone</text>
<text text-anchor="start" x="575" y="-556.8" font-family="Times,serif" font-size="14.00">updated_at :timestamp without time zone</text>
</g>
<!-- Subsidiary&#45;&gt;Ubication -->
<g id="edge2" class="edge"><title>Subsidiary&#45;&gt;Ubication</title>
<path fill="none" stroke="#d5e917" d="M689,-540.926C689,-498.957 689,-445.117 689,-402.671"/>
<ellipse fill="none" stroke="#d5e917" cx="689" cy="-544.952" rx="4" ry="4"/>
<polygon fill="#d5e917" stroke="#d5e917" points="689,-402.417 693.5,-392.417 689,-397.417 689,-392.417 689,-392.417 689,-392.417 689,-397.417 684.5,-392.417 689,-402.417 689,-402.417"/>
</g>
<!-- Activity -->
<g id="node7" class="node"><title>Activity</title>
<path fill="none" stroke="black" d="M244,-541.5C244,-541.5 464,-541.5 464,-541.5 470,-541.5 476,-547.5 476,-553.5 476,-553.5 476,-665.5 476,-665.5 476,-671.5 470,-677.5 464,-677.5 464,-677.5 244,-677.5 244,-677.5 238,-677.5 232,-671.5 232,-665.5 232,-665.5 232,-553.5 232,-553.5 232,-547.5 238,-541.5 244,-541.5"/>
<text text-anchor="middle" x="354" y="-662.3" font-family="Times,serif" font-size="14.00">Activity</text>
<polyline fill="none" stroke="black" points="232,-654.5 476,-654.5 "/>
<text text-anchor="start" x="240" y="-639.3" font-family="Times,serif" font-size="14.00">id :integer</text>
<text text-anchor="start" x="240" y="-624.3" font-family="Times,serif" font-size="14.00">name :character varying</text>
<text text-anchor="start" x="240" y="-609.3" font-family="Times,serif" font-size="14.00">description :text</text>
<text text-anchor="start" x="240" y="-594.3" font-family="Times,serif" font-size="14.00">enabled :boolean</text>
<text text-anchor="start" x="240" y="-579.3" font-family="Times,serif" font-size="14.00">capacity :integer</text>
<text text-anchor="start" x="240" y="-564.3" font-family="Times,serif" font-size="14.00">created_at :timestamp without time zone</text>
<text text-anchor="start" x="240" y="-549.3" font-family="Times,serif" font-size="14.00">updated_at :timestamp without time zone</text>
</g>
<!-- Activity&#45;&gt;UserActivity -->
<g id="edge3" class="edge"><title>Activity&#45;&gt;UserActivity</title>
<path fill="none" stroke="#1481f6" d="M269.85,-535.824C229.989,-500.949 190.463,-465.508 188,-460 142.057,-357.257 173.594,-223.187 199.274,-146.186"/>
<ellipse fill="none" stroke="#1481f6" cx="273.232" cy="-538.78" rx="4.00002" ry="4.00002"/>
<polygon fill="#1481f6" stroke="#1481f6" points="199.306,-146.092 206.79,-138.077 200.918,-141.359 202.53,-136.626 202.53,-136.626 202.53,-136.626 200.918,-141.359 198.271,-135.175 199.306,-146.092 199.306,-146.092"/>
</g>
<!-- User -->
<g id="node9" class="node"><title>User</title>
<path fill="none" stroke="black" d="M209.5,-203.5C209.5,-203.5 498.5,-203.5 498.5,-203.5 504.5,-203.5 510.5,-209.5 510.5,-215.5 510.5,-215.5 510.5,-447.5 510.5,-447.5 510.5,-453.5 504.5,-459.5 498.5,-459.5 498.5,-459.5 209.5,-459.5 209.5,-459.5 203.5,-459.5 197.5,-453.5 197.5,-447.5 197.5,-447.5 197.5,-215.5 197.5,-215.5 197.5,-209.5 203.5,-203.5 209.5,-203.5"/>
<text text-anchor="middle" x="354" y="-444.3" font-family="Times,serif" font-size="14.00">User</text>
<polyline fill="none" stroke="black" points="197.5,-436.5 510.5,-436.5 "/>
<text text-anchor="start" x="205.5" y="-421.3" font-family="Times,serif" font-size="14.00">id :integer</text>
<text text-anchor="start" x="205.5" y="-406.3" font-family="Times,serif" font-size="14.00">email :character varying</text>
<text text-anchor="start" x="205.5" y="-391.3" font-family="Times,serif" font-size="14.00">encrypted_password :character varying</text>
<text text-anchor="start" x="205.5" y="-376.3" font-family="Times,serif" font-size="14.00">reset_password_token :character varying</text>
<text text-anchor="start" x="205.5" y="-361.3" font-family="Times,serif" font-size="14.00">reset_password_sent_at :timestamp without time zone</text>
<text text-anchor="start" x="205.5" y="-346.3" font-family="Times,serif" font-size="14.00">remember_created_at :timestamp without time zone</text>
<text text-anchor="start" x="205.5" y="-331.3" font-family="Times,serif" font-size="14.00">sign_in_count :integer</text>
<text text-anchor="start" x="205.5" y="-316.3" font-family="Times,serif" font-size="14.00">current_sign_in_at :timestamp without time zone</text>
<text text-anchor="start" x="205.5" y="-301.3" font-family="Times,serif" font-size="14.00">last_sign_in_at :timestamp without time zone</text>
<text text-anchor="start" x="205.5" y="-286.3" font-family="Times,serif" font-size="14.00">current_sign_in_ip :inet</text>
<text text-anchor="start" x="205.5" y="-271.3" font-family="Times,serif" font-size="14.00">last_sign_in_ip :inet</text>
<text text-anchor="start" x="205.5" y="-256.3" font-family="Times,serif" font-size="14.00">created_at :timestamp without time zone</text>
<text text-anchor="start" x="205.5" y="-241.3" font-family="Times,serif" font-size="14.00">updated_at :timestamp without time zone</text>
<text text-anchor="start" x="205.5" y="-226.3" font-family="Times,serif" font-size="14.00">role :integer</text>
<text text-anchor="start" x="205.5" y="-211.3" font-family="Times,serif" font-size="14.00">name :character varying</text>
</g>
<!-- Activity&#45;&gt;User -->
<g id="edge4" class="edge"><title>Activity&#45;&gt;User</title>
<path fill="none" stroke="#e4f0ce" d="M354,-531.305C354,-512.09 354,-490.908 354,-469.749"/>
<polygon fill="#e4f0ce" stroke="#e4f0ce" points="354,-531.336 349.5,-541.336 354,-536.336 354,-541.336 354,-541.336 354,-541.336 354,-536.336 358.5,-541.336 354,-531.336 354,-531.336"/>
<polygon fill="#e4f0ce" stroke="#e4f0ce" points="354,-469.706 358.5,-459.706 354,-464.706 354,-459.706 354,-459.706 354,-459.706 354,-464.706 349.5,-459.706 354,-469.706 354,-469.706"/>
</g>
<!-- Activity&#45;&gt;Reservation -->
<g id="edge5" class="edge"><title>Activity&#45;&gt;Reservation</title>
<path fill="none" stroke="#ba4d5d" d="M460.432,-535.997C484.112,-514.443 506.244,-488.787 520,-460 562.643,-370.762 561.463,-255.616 553.397,-176.492"/>
<ellipse fill="none" stroke="#ba4d5d" cx="457.369" cy="-538.726" rx="4.00002" ry="4.00002"/>
<polygon fill="#ba4d5d" stroke="#ba4d5d" points="553.397,-176.485 556.802,-166.061 552.862,-171.514 552.328,-166.542 552.328,-166.542 552.328,-166.542 552.862,-171.514 547.853,-167.023 553.397,-176.485 553.397,-176.485"/>
</g>
<!-- Ability -->
<g id="node8" class="node"><title>Ability</title>
<polygon fill="none" stroke="black" points="1332.5,-586.5 1332.5,-632.5 1387.5,-632.5 1387.5,-586.5 1332.5,-586.5"/>
<text text-anchor="middle" x="1360" y="-617.3" font-family="Times,serif" font-size="14.00">Ability</text>
<polyline fill="none" stroke="black" points="1332.5,-609.5 1387.5,-609.5 "/>
<text text-anchor="middle" x="1360" y="-594.3" font-family="Times,serif" font-size="14.00"> </text>
</g>
<!-- User&#45;&gt;UserActivity -->
<g id="edge7" class="edge"><title>User&#45;&gt;UserActivity</title>
<path fill="none" stroke="#33de2c" d="M282.38,-196.007C272.987,-178.368 263.763,-161.047 255.49,-145.512"/>
<ellipse fill="none" stroke="#33de2c" cx="284.318" cy="-199.646" rx="4.00002" ry="4.00002"/>
<polygon fill="#33de2c" stroke="#33de2c" points="255.436,-145.41 254.707,-134.468 253.086,-140.997 250.735,-136.583 250.735,-136.583 250.735,-136.583 253.086,-140.997 246.763,-138.698 255.436,-145.41 255.436,-145.41"/>
</g>
<!-- User&#45;&gt;Reservation -->
<g id="edge6" class="edge"><title>User&#45;&gt;Reservation</title>
<path fill="none" stroke="#24ec7f" d="M454.564,-196.777C460.111,-189.401 465.619,-182.077 471.007,-174.912"/>
<ellipse fill="none" stroke="#24ec7f" cx="452.156" cy="-199.98" rx="4.00002" ry="4.00002"/>
<polygon fill="#24ec7f" stroke="#24ec7f" points="471.263,-174.572 480.87,-169.285 474.268,-170.576 477.273,-166.58 477.273,-166.58 477.273,-166.58 474.268,-170.576 473.677,-163.875 471.263,-174.572 471.263,-174.572"/>
</g>
</g>
</svg>
