<?xml version="1.0" encoding="UTF-8" standalone="no"?>
<!DOCTYPE svg PUBLIC "-//W3C//DTD SVG 1.1//EN"
 "http://www.w3.org/Graphics/SVG/1.1/DTD/svg11.dtd">
<!-- Generated by graphviz version 2.38.0 (20140413.2041)
 -->
<!-- Title: models_diagram Pages: 1 -->
<svg width="546pt" height="302pt"
 viewBox="0.00 0.00 546.10 302.00" xmlns="http://www.w3.org/2000/svg" xmlns:xlink="http://www.w3.org/1999/xlink">
<g id="graph0" class="graph" transform="scale(1 1) rotate(0) translate(4 298)">
<title>models_diagram</title>
<polygon fill="none" stroke="none" points="-4,4 -4,-298 542.096,-298 542.096,4 -4,4"/>
<!-- _diagram_info -->
<g id="node1" class="node"><title>_diagram_info</title>
<text text-anchor="start" x="8" y="-279.6" font-family="Times,serif" font-size="13.00">Models diagram</text>
<text text-anchor="start" x="8" y="-265.6" font-family="Times,serif" font-size="13.00">Date: Mar 10 2017 &#45; 17:48</text>
<text text-anchor="start" x="8" y="-251.6" font-family="Times,serif" font-size="13.00">Migration version: 20170310203545</text>
<text text-anchor="start" x="8" y="-237.6" font-family="Times,serif" font-size="13.00">Generated by RailRoady 1.5.2</text>
<text text-anchor="start" x="8" y="-223.6" font-family="Times,serif" font-size="13.00">http://railroady.prestonlee.com</text>
</g>
<!-- UserActivity -->
<g id="node2" class="node"><title>UserActivity</title>
<ellipse fill="none" stroke="black" cx="244" cy="-90" rx="55.7903" ry="18"/>
<text text-anchor="middle" x="244" y="-86.3" font-family="Times,serif" font-size="14.00">UserActivity</text>
</g>
<!-- Ubication -->
<g id="node3" class="node"><title>Ubication</title>
<ellipse fill="none" stroke="black" cx="430" cy="-18" rx="45.4919" ry="18"/>
<text text-anchor="middle" x="430" y="-14.3" font-family="Times,serif" font-size="14.00">Ubication</text>
</g>
<!-- ApplicationRecord -->
<g id="node4" class="node"><title>ApplicationRecord</title>
<ellipse fill="none" stroke="black" cx="407" cy="-255" rx="77.1866" ry="18"/>
<text text-anchor="middle" x="407" y="-251.3" font-family="Times,serif" font-size="14.00">ApplicationRecord</text>
</g>
<!-- Subsidiary -->
<g id="node5" class="node"><title>Subsidiary</title>
<ellipse fill="none" stroke="black" cx="490" cy="-90" rx="48.1917" ry="18"/>
<text text-anchor="middle" x="490" y="-86.3" font-family="Times,serif" font-size="14.00">Subsidiary</text>
</g>
<!-- Subsidiary&#45;&gt;Ubication -->
<g id="edge1" class="edge"><title>Subsidiary&#45;&gt;Ubication</title>
<path fill="none" stroke="#b8ed02" d="M470.836,-66.6425C464.391,-59.1231 457.175,-50.7042 450.622,-43.0595"/>
<ellipse fill="none" stroke="#b8ed02" cx="473.481" cy="-69.7276" rx="4.00002" ry="4.00002"/>
<polygon fill="#b8ed02" stroke="#b8ed02" points="450.348,-42.7399 447.257,-32.2187 447.095,-38.9436 443.841,-35.1473 443.841,-35.1473 443.841,-35.1473 447.095,-38.9436 440.424,-38.0759 450.348,-42.7399 450.348,-42.7399"/>
</g>
<!-- Activity -->
<g id="node6" class="node"><title>Activity</title>
<ellipse fill="none" stroke="black" cx="272" cy="-255" rx="39.7935" ry="18"/>
<text text-anchor="middle" x="272" y="-251.3" font-family="Times,serif" font-size="14.00">Activity</text>
</g>
<!-- Activity&#45;&gt;UserActivity -->
<g id="edge2" class="edge"><title>Activity&#45;&gt;UserActivity</title>
<path fill="none" stroke="#36f4f7" d="M267.696,-228.945C262.567,-199.085 254.025,-149.36 248.719,-118.473"/>
<ellipse fill="none" stroke="#36f4f7" cx="268.379" cy="-232.922" rx="4.00001" ry="4.00001"/>
<polygon fill="#36f4f7" stroke="#36f4f7" points="248.681,-118.252 251.423,-107.635 247.835,-113.325 246.988,-108.397 246.988,-108.397 246.988,-108.397 247.835,-113.325 242.553,-109.159 248.681,-118.252 248.681,-118.252"/>
</g>
<!-- User -->
<g id="node7" class="node"><title>User</title>
<ellipse fill="none" stroke="black" cx="299" cy="-162" rx="27.0966" ry="18"/>
<text text-anchor="middle" x="299" y="-158.3" font-family="Times,serif" font-size="14.00">User</text>
</g>
<!-- Activity&#45;&gt;User -->
<g id="edge3" class="edge"><title>Activity&#45;&gt;User</title>
<path fill="none" stroke="#62c07b" d="M280.034,-226.922C283.55,-215.073 287.66,-201.218 291.154,-189.443"/>
<polygon fill="#62c07b" stroke="#62c07b" points="279.923,-227.297 272.764,-235.604 278.501,-232.09 277.078,-236.884 277.078,-236.884 277.078,-236.884 278.501,-232.09 281.393,-238.164 279.923,-227.297 279.923,-227.297"/>
<polygon fill="#62c07b" stroke="#62c07b" points="291.191,-189.319 298.35,-181.012 292.613,-184.526 294.036,-179.732 294.036,-179.732 294.036,-179.732 292.613,-184.526 289.721,-178.452 291.191,-189.319 291.191,-189.319"/>
</g>
<!-- User&#45;&gt;UserActivity -->
<g id="edge5" class="edge"><title>User&#45;&gt;UserActivity</title>
<path fill="none" stroke="#9ba5d2" d="M282.022,-139.392C276.119,-131.879 269.454,-123.396 263.372,-115.655"/>
<ellipse fill="none" stroke="#9ba5d2" cx="284.595" cy="-142.666" rx="4.00002" ry="4.00002"/>
<polygon fill="#9ba5d2" stroke="#9ba5d2" points="263.243,-115.491 260.603,-104.848 260.154,-111.559 257.065,-107.628 257.065,-107.628 257.065,-107.628 260.154,-111.559 253.526,-110.408 263.243,-115.491 263.243,-115.491"/>
</g>
<!-- Reservation -->
<g id="node8" class="node"><title>Reservation</title>
<ellipse fill="none" stroke="black" cx="371" cy="-90" rx="52.7911" ry="18"/>
<text text-anchor="middle" x="371" y="-86.3" font-family="Times,serif" font-size="14.00">Reservation</text>
</g>
<!-- User&#45;&gt;Reservation -->
<g id="edge4" class="edge"><title>User&#45;&gt;Reservation</title>
<path fill="none" stroke="#a5d217" d="M319.747,-140.829C328.242,-132.57 338.127,-122.96 346.936,-114.395"/>
<ellipse fill="none" stroke="#a5d217" cx="316.786" cy="-143.708" rx="4.00002" ry="4.00002"/>
<polygon fill="#a5d217" stroke="#a5d217" points="347.169,-114.169 357.476,-110.425 350.754,-110.684 354.339,-107.198 354.339,-107.198 354.339,-107.198 350.754,-110.684 351.202,-103.972 347.169,-114.169 347.169,-114.169"/>
</g>
<!-- Reservation&#45;&gt;Ubication -->
<g id="edge6" class="edge"><title>Reservation&#45;&gt;Ubication</title>
<path fill="none" stroke="#f1118d" d="M390.303,-66.0984C396.491,-58.7569 403.361,-50.6056 409.623,-43.1761"/>
<ellipse fill="none" stroke="#f1118d" cx="387.56" cy="-69.3525" rx="4.00002" ry="4.00002"/>
<polygon fill="#f1118d" stroke="#f1118d" points="409.673,-43.1162 419.559,-38.3701 412.896,-39.2931 416.118,-35.4699 416.118,-35.4699 416.118,-35.4699 412.896,-39.2931 412.677,-32.5698 409.673,-43.1162 409.673,-43.1162"/>
</g>
</g>
</svg>
