<?xml version="1.0" encoding="UTF-8" standalone="no"?>
<!DOCTYPE svg PUBLIC "-//W3C//DTD SVG 1.1//EN"
 "http://www.w3.org/Graphics/SVG/1.1/DTD/svg11.dtd">
<!-- Generated by graphviz version 2.38.0 (20140413.2041)
 -->
<!-- Title: models_diagram Pages: 1 -->
<svg width="1060pt" height="844pt"
 viewBox="0.00 0.00 1060.50 844.00" xmlns="http://www.w3.org/2000/svg" xmlns:xlink="http://www.w3.org/1999/xlink">
<g id="graph0" class="graph" transform="scale(1 1) rotate(0) translate(4 840)">
<title>models_diagram</title>
<polygon fill="none" stroke="none" points="-4,4 -4,-840 1056.5,-840 1056.5,4 -4,4"/>
<!-- _diagram_info -->
<g id="node1" class="node"><title>_diagram_info</title>
<text text-anchor="start" x="8" y="-747.1" font-family="Times,serif" font-size="13.00">Models diagram</text>
<text text-anchor="start" x="8" y="-733.1" font-family="Times,serif" font-size="13.00">Date: Mar 16 2017 &#45; 16:20</text>
<text text-anchor="start" x="8" y="-719.1" font-family="Times,serif" font-size="13.00">Migration version: 20170316191828</text>
<text text-anchor="start" x="8" y="-705.1" font-family="Times,serif" font-size="13.00">Generated by RailRoady 1.5.2</text>
<text text-anchor="start" x="8" y="-691.1" font-family="Times,serif" font-size="13.00">http://railroady.prestonlee.com</text>
</g>
<!-- UserActivity -->
<g id="node2" class="node"><title>UserActivity</title>
<path fill="none" stroke="black" d="M151,-173.5C151,-173.5 371,-173.5 371,-173.5 377,-173.5 383,-179.5 383,-185.5 383,-185.5 383,-267.5 383,-267.5 383,-273.5 377,-279.5 371,-279.5 371,-279.5 151,-279.5 151,-279.5 145,-279.5 139,-273.5 139,-267.5 139,-267.5 139,-185.5 139,-185.5 139,-179.5 145,-173.5 151,-173.5"/>
<text text-anchor="middle" x="261" y="-264.3" font-family="Times,serif" font-size="14.00">UserActivity</text>
<polyline fill="none" stroke="black" points="139,-256.5 383,-256.5 "/>
<text text-anchor="start" x="147" y="-241.3" font-family="Times,serif" font-size="14.00">id :integer</text>
<text text-anchor="start" x="147" y="-226.3" font-family="Times,serif" font-size="14.00">user_id :integer</text>
<text text-anchor="start" x="147" y="-211.3" font-family="Times,serif" font-size="14.00">activity_id :integer</text>
<text text-anchor="start" x="147" y="-196.3" font-family="Times,serif" font-size="14.00">created_at :timestamp without time zone</text>
<text text-anchor="start" x="147" y="-181.3" font-family="Times,serif" font-size="14.00">updated_at :timestamp without time zone</text>
</g>
<!-- Ubication -->
<g id="node3" class="node"><title>Ubication</title>
<path fill="none" stroke="black" d="M544,-0.5C544,-0.5 764,-0.5 764,-0.5 770,-0.5 776,-6.5 776,-12.5 776,-12.5 776,-109.5 776,-109.5 776,-115.5 770,-121.5 764,-121.5 764,-121.5 544,-121.5 544,-121.5 538,-121.5 532,-115.5 532,-109.5 532,-109.5 532,-12.5 532,-12.5 532,-6.5 538,-0.5 544,-0.5"/>
<text text-anchor="middle" x="654" y="-106.3" font-family="Times,serif" font-size="14.00">Ubication</text>
<polyline fill="none" stroke="black" points="532,-98.5 776,-98.5 "/>
<text text-anchor="start" x="540" y="-83.3" font-family="Times,serif" font-size="14.00">id :integer</text>
<text text-anchor="start" x="540" y="-68.3" font-family="Times,serif" font-size="14.00">name :character varying</text>
<text text-anchor="start" x="540" y="-53.3" font-family="Times,serif" font-size="14.00">capacity :integer</text>
<text text-anchor="start" x="540" y="-38.3" font-family="Times,serif" font-size="14.00">subsidiary_id :integer</text>
<text text-anchor="start" x="540" y="-23.3" font-family="Times,serif" font-size="14.00">created_at :timestamp without time zone</text>
<text text-anchor="start" x="540" y="-8.3" font-family="Times,serif" font-size="14.00">updated_at :timestamp without time zone</text>
</g>
<!-- ApplicationRecord -->
<g id="node4" class="node"><title>ApplicationRecord</title>
<ellipse fill="none" stroke="black" cx="571" cy="-722.5" rx="77.1866" ry="18"/>
<text text-anchor="middle" x="571" y="-718.8" font-family="Times,serif" font-size="14.00">ApplicationRecord</text>
</g>
<!-- AdminUser -->
<g id="node5" class="node"><title>AdminUser</title>
<path fill="none" stroke="black" d="M678.5,-609.5C678.5,-609.5 967.5,-609.5 967.5,-609.5 973.5,-609.5 979.5,-615.5 979.5,-621.5 979.5,-621.5 979.5,-823.5 979.5,-823.5 979.5,-829.5 973.5,-835.5 967.5,-835.5 967.5,-835.5 678.5,-835.5 678.5,-835.5 672.5,-835.5 666.5,-829.5 666.5,-823.5 666.5,-823.5 666.5,-621.5 666.5,-621.5 666.5,-615.5 672.5,-609.5 678.5,-609.5"/>
<text text-anchor="middle" x="823" y="-820.3" font-family="Times,serif" font-size="14.00">AdminUser</text>
<polyline fill="none" stroke="black" points="666.5,-812.5 979.5,-812.5 "/>
<text text-anchor="start" x="674.5" y="-797.3" font-family="Times,serif" font-size="14.00">id :integer</text>
<text text-anchor="start" x="674.5" y="-782.3" font-family="Times,serif" font-size="14.00">email :character varying</text>
<text text-anchor="start" x="674.5" y="-767.3" font-family="Times,serif" font-size="14.00">encrypted_password :character varying</text>
<text text-anchor="start" x="674.5" y="-752.3" font-family="Times,serif" font-size="14.00">reset_password_token :character varying</text>
<text text-anchor="start" x="674.5" y="-737.3" font-family="Times,serif" font-size="14.00">reset_password_sent_at :timestamp without time zone</text>
<text text-anchor="start" x="674.5" y="-722.3" font-family="Times,serif" font-size="14.00">remember_created_at :timestamp without time zone</text>
<text text-anchor="start" x="674.5" y="-707.3" font-family="Times,serif" font-size="14.00">sign_in_count :integer</text>
<text text-anchor="start" x="674.5" y="-692.3" font-family="Times,serif" font-size="14.00">current_sign_in_at :timestamp without time zone</text>
<text text-anchor="start" x="674.5" y="-677.3" font-family="Times,serif" font-size="14.00">last_sign_in_at :timestamp without time zone</text>
<text text-anchor="start" x="674.5" y="-662.3" font-family="Times,serif" font-size="14.00">current_sign_in_ip :inet</text>
<text text-anchor="start" x="674.5" y="-647.3" font-family="Times,serif" font-size="14.00">last_sign_in_ip :inet</text>
<text text-anchor="start" x="674.5" y="-632.3" font-family="Times,serif" font-size="14.00">created_at :timestamp without time zone</text>
<text text-anchor="start" x="674.5" y="-617.3" font-family="Times,serif" font-size="14.00">updated_at :timestamp without time zone</text>
</g>
<!-- Subsidiary -->
<g id="node6" class="node"><title>Subsidiary</title>
<path fill="none" stroke="black" d="M675,-166C675,-166 895,-166 895,-166 901,-166 907,-172 907,-178 907,-178 907,-275 907,-275 907,-281 901,-287 895,-287 895,-287 675,-287 675,-287 669,-287 663,-281 663,-275 663,-275 663,-178 663,-178 663,-172 669,-166 675,-166"/>
<text text-anchor="middle" x="785" y="-271.8" font-family="Times,serif" font-size="14.00">Subsidiary</text>
<polyline fill="none" stroke="black" points="663,-264 907,-264 "/>
<text text-anchor="start" x="671" y="-248.8" font-family="Times,serif" font-size="14.00">id :integer</text>
<text text-anchor="start" x="671" y="-233.8" font-family="Times,serif" font-size="14.00">name :character varying</text>
<text text-anchor="start" x="671" y="-218.8" font-family="Times,serif" font-size="14.00">address :character varying</text>
<text text-anchor="start" x="671" y="-203.8" font-family="Times,serif" font-size="14.00">phone :character varying</text>
<text text-anchor="start" x="671" y="-188.8" font-family="Times,serif" font-size="14.00">created_at :timestamp without time zone</text>
<text text-anchor="start" x="671" y="-173.8" font-family="Times,serif" font-size="14.00">updated_at :timestamp without time zone</text>
</g>
<!-- Subsidiary&#45;&gt;Ubication -->
<g id="edge1" class="edge"><title>Subsidiary&#45;&gt;Ubication</title>
<path fill="none" stroke="#c36718" d="M731.813,-159.118C724.057,-149.437 716.061,-139.458 708.283,-129.75"/>
<ellipse fill="none" stroke="#c36718" cx="734.463" cy="-162.425" rx="4.00002" ry="4.00002"/>
<polygon fill="#c36718" stroke="#c36718" points="708.064,-129.476 705.323,-118.859 704.937,-125.574 701.811,-121.672 701.811,-121.672 701.811,-121.672 704.937,-125.574 698.299,-124.486 708.064,-129.476 708.064,-129.476"/>
</g>
<!-- Activity -->
<g id="node7" class="node"><title>Activity</title>
<path fill="none" stroke="black" d="M244,-654.5C244,-654.5 464,-654.5 464,-654.5 470,-654.5 476,-660.5 476,-666.5 476,-666.5 476,-778.5 476,-778.5 476,-784.5 470,-790.5 464,-790.5 464,-790.5 244,-790.5 244,-790.5 238,-790.5 232,-784.5 232,-778.5 232,-778.5 232,-666.5 232,-666.5 232,-660.5 238,-654.5 244,-654.5"/>
<text text-anchor="middle" x="354" y="-775.3" font-family="Times,serif" font-size="14.00">Activity</text>
<polyline fill="none" stroke="black" points="232,-767.5 476,-767.5 "/>
<text text-anchor="start" x="240" y="-752.3" font-family="Times,serif" font-size="14.00">id :integer</text>
<text text-anchor="start" x="240" y="-737.3" font-family="Times,serif" font-size="14.00">name :character varying</text>
<text text-anchor="start" x="240" y="-722.3" font-family="Times,serif" font-size="14.00">description :text</text>
<text text-anchor="start" x="240" y="-707.3" font-family="Times,serif" font-size="14.00">enabled :boolean</text>
<text text-anchor="start" x="240" y="-692.3" font-family="Times,serif" font-size="14.00">capacity :integer</text>
<text text-anchor="start" x="240" y="-677.3" font-family="Times,serif" font-size="14.00">created_at :timestamp without time zone</text>
<text text-anchor="start" x="240" y="-662.3" font-family="Times,serif" font-size="14.00">updated_at :timestamp without time zone</text>
</g>
<!-- Activity&#45;&gt;UserActivity -->
<g id="edge2" class="edge"><title>Activity&#45;&gt;UserActivity</title>
<path fill="none" stroke="#529cd0" d="M309.462,-646.95C297.802,-623.991 286.647,-598.128 280,-573 254.484,-476.547 254.079,-359.827 256.942,-289.732"/>
<ellipse fill="none" stroke="#529cd0" cx="311.423" cy="-650.744" rx="4.00002" ry="4.00002"/>
<polygon fill="#529cd0" stroke="#529cd0" points="256.942,-289.727 261.881,-279.936 257.164,-284.732 257.385,-279.737 257.385,-279.737 257.385,-279.737 257.164,-284.732 252.89,-279.537 256.942,-289.727 256.942,-289.727"/>
</g>
<!-- User -->
<g id="node9" class="node"><title>User</title>
<path fill="none" stroke="black" d="M301.5,-331.5C301.5,-331.5 590.5,-331.5 590.5,-331.5 596.5,-331.5 602.5,-337.5 602.5,-343.5 602.5,-343.5 602.5,-560.5 602.5,-560.5 602.5,-566.5 596.5,-572.5 590.5,-572.5 590.5,-572.5 301.5,-572.5 301.5,-572.5 295.5,-572.5 289.5,-566.5 289.5,-560.5 289.5,-560.5 289.5,-343.5 289.5,-343.5 289.5,-337.5 295.5,-331.5 301.5,-331.5"/>
<text text-anchor="middle" x="446" y="-557.3" font-family="Times,serif" font-size="14.00">User</text>
<polyline fill="none" stroke="black" points="289.5,-549.5 602.5,-549.5 "/>
<text text-anchor="start" x="297.5" y="-534.3" font-family="Times,serif" font-size="14.00">id :integer</text>
<text text-anchor="start" x="297.5" y="-519.3" font-family="Times,serif" font-size="14.00">email :character varying</text>
<text text-anchor="start" x="297.5" y="-504.3" font-family="Times,serif" font-size="14.00">encrypted_password :character varying</text>
<text text-anchor="start" x="297.5" y="-489.3" font-family="Times,serif" font-size="14.00">reset_password_token :character varying</text>
<text text-anchor="start" x="297.5" y="-474.3" font-family="Times,serif" font-size="14.00">reset_password_sent_at :timestamp without time zone</text>
<text text-anchor="start" x="297.5" y="-459.3" font-family="Times,serif" font-size="14.00">remember_created_at :timestamp without time zone</text>
<text text-anchor="start" x="297.5" y="-444.3" font-family="Times,serif" font-size="14.00">sign_in_count :integer</text>
<text text-anchor="start" x="297.5" y="-429.3" font-family="Times,serif" font-size="14.00">current_sign_in_at :timestamp without time zone</text>
<text text-anchor="start" x="297.5" y="-414.3" font-family="Times,serif" font-size="14.00">last_sign_in_at :timestamp without time zone</text>
<text text-anchor="start" x="297.5" y="-399.3" font-family="Times,serif" font-size="14.00">current_sign_in_ip :inet</text>
<text text-anchor="start" x="297.5" y="-384.3" font-family="Times,serif" font-size="14.00">last_sign_in_ip :inet</text>
<text text-anchor="start" x="297.5" y="-369.3" font-family="Times,serif" font-size="14.00">created_at :timestamp without time zone</text>
<text text-anchor="start" x="297.5" y="-354.3" font-family="Times,serif" font-size="14.00">updated_at :timestamp without time zone</text>
<text text-anchor="start" x="297.5" y="-339.3" font-family="Times,serif" font-size="14.00">role :integer</text>
</g>
<!-- Activity&#45;&gt;User -->
<g id="edge3" class="edge"><title>Activity&#45;&gt;User</title>
<path fill="none" stroke="#327c61" d="M380.224,-644.965C386.943,-625.357 394.357,-603.72 401.712,-582.254"/>
<polygon fill="#327c61" stroke="#327c61" points="380.22,-644.979 372.721,-652.98 378.599,-649.709 376.978,-654.439 376.978,-654.439 376.978,-654.439 378.599,-649.709 381.235,-655.897 380.22,-644.979 380.22,-644.979"/>
<polygon fill="#327c61" stroke="#327c61" points="401.73,-582.202 409.228,-574.201 403.35,-577.472 404.971,-572.742 404.971,-572.742 404.971,-572.742 403.35,-577.472 400.714,-571.283 401.73,-582.202 401.73,-582.202"/>
</g>
<!-- Ability -->
<g id="node8" class="node"><title>Ability</title>
<polygon fill="none" stroke="black" points="997.5,-699.5 997.5,-745.5 1052.5,-745.5 1052.5,-699.5 997.5,-699.5"/>
<text text-anchor="middle" x="1025" y="-730.3" font-family="Times,serif" font-size="14.00">Ability</text>
<polyline fill="none" stroke="black" points="997.5,-722.5 1052.5,-722.5 "/>
<text text-anchor="middle" x="1025" y="-707.3" font-family="Times,serif" font-size="14.00"> </text>
</g>
<!-- User&#45;&gt;UserActivity -->
<g id="edge5" class="edge"><title>User&#45;&gt;UserActivity</title>
<path fill="none" stroke="#d91b76" d="M341.728,-325.028C330.998,-312.066 320.484,-299.363 310.774,-287.633"/>
<ellipse fill="none" stroke="#d91b76" cx="344.45" cy="-328.317" rx="4.00002" ry="4.00002"/>
<polygon fill="#d91b76" stroke="#d91b76" points="310.565,-287.379 307.655,-276.807 307.376,-283.528 304.188,-279.676 304.188,-279.676 304.188,-279.676 307.376,-283.528 300.722,-282.545 310.565,-287.379 310.565,-287.379"/>
</g>
<!-- Reservation -->
<g id="node10" class="node"><title>Reservation</title>
<path fill="none" stroke="black" d="M413,-158.5C413,-158.5 633,-158.5 633,-158.5 639,-158.5 645,-164.5 645,-170.5 645,-170.5 645,-282.5 645,-282.5 645,-288.5 639,-294.5 633,-294.5 633,-294.5 413,-294.5 413,-294.5 407,-294.5 401,-288.5 401,-282.5 401,-282.5 401,-170.5 401,-170.5 401,-164.5 407,-158.5 413,-158.5"/>
<text text-anchor="middle" x="523" y="-279.3" font-family="Times,serif" font-size="14.00">Reservation</text>
<polyline fill="none" stroke="black" points="401,-271.5 645,-271.5 "/>
<text text-anchor="start" x="409" y="-256.3" font-family="Times,serif" font-size="14.00">id :integer</text>
<text text-anchor="start" x="409" y="-241.3" font-family="Times,serif" font-size="14.00">init_date :timestamp without time zone</text>
<text text-anchor="start" x="409" y="-226.3" font-family="Times,serif" font-size="14.00">end_date :timestamp without time zone</text>
<text text-anchor="start" x="409" y="-211.3" font-family="Times,serif" font-size="14.00">cost :integer</text>
<text text-anchor="start" x="409" y="-196.3" font-family="Times,serif" font-size="14.00">user_id :integer</text>
<text text-anchor="start" x="409" y="-181.3" font-family="Times,serif" font-size="14.00">created_at :timestamp without time zone</text>
<text text-anchor="start" x="409" y="-166.3" font-family="Times,serif" font-size="14.00">updated_at :timestamp without time zone</text>
</g>
<!-- User&#45;&gt;Reservation -->
<g id="edge4" class="edge"><title>User&#45;&gt;Reservation</title>
<path fill="none" stroke="#ac587e" d="M489.834,-323.767C492.082,-317.242 494.305,-310.789 496.473,-304.498"/>
<ellipse fill="none" stroke="#ac587e" cx="488.508" cy="-327.616" rx="4.00001" ry="4.00001"/>
<polygon fill="#ac587e" stroke="#ac587e" points="496.57,-304.216 504.082,-296.227 498.199,-299.488 499.827,-294.761 499.827,-294.761 499.827,-294.761 498.199,-299.488 495.573,-293.295 496.57,-304.216 496.57,-304.216"/>
</g>
<!-- Reservation&#45;&gt;Ubication -->
<g id="edge6" class="edge"><title>Reservation&#45;&gt;Ubication</title>
<path fill="none" stroke="#34db89" d="M582.044,-151.808C587.972,-144.409 593.971,-136.921 599.845,-129.59"/>
<ellipse fill="none" stroke="#34db89" cx="579.54" cy="-154.933" rx="4.00002" ry="4.00002"/>
<polygon fill="#34db89" stroke="#34db89" points="599.907,-129.513 609.672,-124.522 603.034,-125.611 606.16,-121.709 606.16,-121.709 606.16,-121.709 603.034,-125.611 602.648,-118.895 599.907,-129.513 599.907,-129.513"/>
</g>
</g>
</svg>
