<?xml version="1.0" encoding="UTF-8" standalone="no"?>
<!DOCTYPE svg PUBLIC "-//W3C//DTD SVG 1.1//EN"
 "http://www.w3.org/Graphics/SVG/1.1/DTD/svg11.dtd">
<!-- Generated by graphviz version 2.38.0 (20140413.2041)
 -->
<!-- Title: models_diagram Pages: 1 -->
<svg width="820pt" height="230pt"
 viewBox="0.00 0.00 820.50 230.00" xmlns="http://www.w3.org/2000/svg" xmlns:xlink="http://www.w3.org/1999/xlink">
<g id="graph0" class="graph" transform="scale(1 1) rotate(0) translate(4 226)">
<title>models_diagram</title>
<polygon fill="none" stroke="none" points="-4,4 -4,-226 816.5,-226 816.5,4 -4,4"/>
<!-- _diagram_info -->
<g id="node1" class="node"><title>_diagram_info</title>
<text text-anchor="start" x="8" y="-207.6" font-family="Times,serif" font-size="13.00">Models diagram</text>
<text text-anchor="start" x="8" y="-193.6" font-family="Times,serif" font-size="13.00">Date: Mar 17 2017 &#45; 10:32</text>
<text text-anchor="start" x="8" y="-179.6" font-family="Times,serif" font-size="13.00">Migration version: 20170316232028</text>
<text text-anchor="start" x="8" y="-165.6" font-family="Times,serif" font-size="13.00">Generated by RailRoady 1.5.2</text>
<text text-anchor="start" x="8" y="-151.6" font-family="Times,serif" font-size="13.00">http://railroady.prestonlee.com</text>
</g>
<!-- UserActivity -->
<g id="node2" class="node"><title>UserActivity</title>
<ellipse fill="none" stroke="black" cx="261" cy="-18" rx="55.7903" ry="18"/>
<text text-anchor="middle" x="261" y="-14.3" font-family="Times,serif" font-size="14.00">UserActivity</text>
</g>
<!-- Ubication -->
<g id="node3" class="node"><title>Ubication</title>
<ellipse fill="none" stroke="black" cx="398" cy="-90" rx="45.4919" ry="18"/>
<text text-anchor="middle" x="398" y="-86.3" font-family="Times,serif" font-size="14.00">Ubication</text>
</g>
<!-- Reservation -->
<g id="node10" class="node"><title>Reservation</title>
<ellipse fill="none" stroke="black" cx="393" cy="-18" rx="52.7911" ry="18"/>
<text text-anchor="middle" x="393" y="-14.3" font-family="Times,serif" font-size="14.00">Reservation</text>
</g>
<!-- Ubication&#45;&gt;Reservation -->
<g id="edge1" class="edge"><title>Ubication&#45;&gt;Reservation</title>
<path fill="none" stroke="#e2bedb" d="M396.189,-63.6398C395.79,-58.0629 395.367,-52.1319 394.963,-46.4761"/>
<ellipse fill="none" stroke="#e2bedb" cx="396.479" cy="-67.7068" rx="4" ry="4"/>
<polygon fill="#e2bedb" stroke="#e2bedb" points="394.934,-46.0789 398.71,-35.7837 394.578,-41.0916 394.222,-36.1043 394.222,-36.1043 394.222,-36.1043 394.578,-41.0916 389.733,-36.425 394.934,-46.0789 394.934,-46.0789"/>
</g>
<!-- ApplicationRecord -->
<g id="node4" class="node"><title>ApplicationRecord</title>
<ellipse fill="none" stroke="black" cx="541" cy="-183" rx="77.1866" ry="18"/>
<text text-anchor="middle" x="541" y="-179.3" font-family="Times,serif" font-size="14.00">ApplicationRecord</text>
</g>
<!-- AdminUser -->
<g id="node5" class="node"><title>AdminUser</title>
<ellipse fill="none" stroke="black" cx="688" cy="-183" rx="51.9908" ry="18"/>
<text text-anchor="middle" x="688" y="-179.3" font-family="Times,serif" font-size="14.00">AdminUser</text>
</g>
<!-- Subsidiary -->
<g id="node6" class="node"><title>Subsidiary</title>
<ellipse fill="none" stroke="black" cx="398" cy="-183" rx="48.1917" ry="18"/>
<text text-anchor="middle" x="398" y="-179.3" font-family="Times,serif" font-size="14.00">Subsidiary</text>
</g>
<!-- Subsidiary&#45;&gt;Ubication -->
<g id="edge2" class="edge"><title>Subsidiary&#45;&gt;Ubication</title>
<path fill="none" stroke="#ca1115" d="M398,-156.729C398,-144.725 398,-130.362 398,-118.129"/>
<ellipse fill="none" stroke="#ca1115" cx="398" cy="-160.884" rx="4" ry="4"/>
<polygon fill="#ca1115" stroke="#ca1115" points="398,-118.04 402.5,-108.04 398,-113.04 398,-108.04 398,-108.04 398,-108.04 398,-113.04 393.5,-108.04 398,-118.04 398,-118.04"/>
</g>
<!-- Activity -->
<g id="node7" class="node"><title>Activity</title>
<ellipse fill="none" stroke="black" cx="272" cy="-183" rx="39.7935" ry="18"/>
<text text-anchor="middle" x="272" y="-179.3" font-family="Times,serif" font-size="14.00">Activity</text>
</g>
<!-- Activity&#45;&gt;UserActivity -->
<g id="edge3" class="edge"><title>Activity&#45;&gt;UserActivity</title>
<path fill="none" stroke="#ed6f9b" d="M270.28,-156.52C268.261,-126.6 264.925,-77.1639 262.851,-46.4265"/>
<ellipse fill="none" stroke="#ed6f9b" cx="270.574" cy="-160.873" rx="4" ry="4"/>
<polygon fill="#ed6f9b" stroke="#ed6f9b" points="262.847,-46.3741 266.664,-36.0937 262.511,-41.3854 262.174,-36.3968 262.174,-36.3968 262.174,-36.3968 262.511,-41.3854 257.684,-36.6998 262.847,-46.3741 262.847,-46.3741"/>
</g>
<!-- User -->
<g id="node9" class="node"><title>User</title>
<ellipse fill="none" stroke="black" cx="307" cy="-90" rx="27.0966" ry="18"/>
<text text-anchor="middle" x="307" y="-86.3" font-family="Times,serif" font-size="14.00">User</text>
</g>
<!-- Activity&#45;&gt;User -->
<g id="edge4" class="edge"><title>Activity&#45;&gt;User</title>
<path fill="none" stroke="#22fb9a" d="M282.245,-155.363C286.873,-143.33 292.323,-129.16 296.93,-117.182"/>
<polygon fill="#22fb9a" stroke="#22fb9a" points="282.173,-155.55 274.383,-163.268 280.378,-160.217 278.583,-164.884 278.583,-164.884 278.583,-164.884 280.378,-160.217 282.783,-166.499 282.173,-155.55 282.173,-155.55"/>
<polygon fill="#22fb9a" stroke="#22fb9a" points="296.975,-117.066 304.765,-109.348 298.77,-112.399 300.565,-107.732 300.565,-107.732 300.565,-107.732 298.77,-112.399 296.364,-106.117 296.975,-117.066 296.975,-117.066"/>
</g>
<!-- Ability -->
<g id="node8" class="node"><title>Ability</title>
<polygon fill="none" stroke="black" points="812.5,-201 757.5,-201 757.5,-165 812.5,-165 812.5,-201"/>
<text text-anchor="middle" x="785" y="-179.3" font-family="Times,serif" font-size="14.00">Ability</text>
</g>
<!-- User&#45;&gt;UserActivity -->
<g id="edge6" class="edge"><title>User&#45;&gt;UserActivity</title>
<path fill="none" stroke="#f343a7" d="M292.031,-66.2205C287.453,-59.2551 282.391,-51.5513 277.706,-44.4219"/>
<ellipse fill="none" stroke="#f343a7" cx="294.365" cy="-69.7731" rx="4.00002" ry="4.00002"/>
<polygon fill="#f343a7" stroke="#f343a7" points="277.53,-44.1544 275.799,-33.326 274.784,-39.9759 272.038,-35.7973 272.038,-35.7973 272.038,-35.7973 274.784,-39.9759 268.278,-38.2687 277.53,-44.1544 277.53,-44.1544"/>
</g>
<!-- User&#45;&gt;Reservation -->
<g id="edge5" class="edge"><title>User&#45;&gt;Reservation</title>
<path fill="none" stroke="#761070" d="M329.937,-70.3307C340.86,-61.4395 354.01,-50.7358 365.469,-41.4087"/>
<ellipse fill="none" stroke="#761070" cx="326.684" cy="-72.9782" rx="4.00002" ry="4.00002"/>
<polygon fill="#761070" stroke="#761070" points="365.703,-41.2187 376.299,-38.396 369.581,-38.0623 373.458,-34.906 373.458,-34.906 373.458,-34.906 369.581,-38.0623 370.618,-31.4159 365.703,-41.2187 365.703,-41.2187"/>
</g>
</g>
</svg>
